<?xml version="1.0" encoding="UTF-8" standalone="no"?>
<!-- Created with Inkscape (http://www.inkscape.org/) -->

<svg
   width="210mm"
   height="297mm"
   viewBox="0 0 210 297"
   version="1.1"
   id="svg5"
   xml:space="preserve"
   inkscape:version="1.2.2 (732a01da63, 2022-12-09)"
   sodipodi:docname="Logo.svg"
   xmlns:inkscape="http://www.inkscape.org/namespaces/inkscape"
   xmlns:sodipodi="http://sodipodi.sourceforge.net/DTD/sodipodi-0.dtd"
   xmlns="http://www.w3.org/2000/svg"
   xmlns:svg="http://www.w3.org/2000/svg"><sodipodi:namedview
     id="namedview7"
     pagecolor="#ffffff"
     bordercolor="#666666"
     borderopacity="1.0"
     inkscape:showpageshadow="2"
     inkscape:pageopacity="0.0"
     inkscape:pagecheckerboard="0"
     inkscape:deskcolor="#d1d1d1"
     inkscape:document-units="mm"
     showgrid="false"
     showguides="true"
     inkscape:zoom="1.1893044"
     inkscape:cx="330.86567"
     inkscape:cy="898.84474"
     inkscape:window-width="1920"
     inkscape:window-height="1017"
     inkscape:window-x="3832"
     inkscape:window-y="-8"
     inkscape:window-maximized="1"
     inkscape:current-layer="layer1" /><defs
     id="defs2">
	
	

	
	
	
	
	
	
	
	
	
	
	
	
	
	
	
	
	
	
	

	
	
	

	
	
	
	
	
	
	
  </defs><g
     inkscape:label="Layer 1"
     inkscape:groupmode="layer"
     id="layer1"><g
       id="g7451"
       transform="translate(37.041668)"><text
         xml:space="preserve"
         style="font-size:12.6932px;line-height:20.3092px;font-family:'Comic Sans MS';-inkscape-font-specification:'Comic Sans MS';letter-spacing:0px;stroke-width:0.264583"
         x="16.210291"
         y="90.44857"
         id="text406"><tspan
           sodipodi:role="line"
           id="tspan404"
           style="font-style:normal;font-variant:normal;font-weight:normal;font-stretch:normal;font-size:12.6932px;font-family:'Titillium Web';-inkscape-font-specification:'Titillium Web';stroke-width:0.264583"
           x="16.210291"
           y="90.44857">Package Loss</tspan></text><g
         id="g2032"
         transform="matrix(0.40307959,0,0,0.40307959,17.904238,-16.485395)"><path
           class="st0"
           d="m 147.94505,204.69758 c 0.76464,-3.62743 2.78077,-5.27843 6.40556,-5.27843 h 6.44789 c 3.02155,0 5.03767,2.61937 4.43177,5.43983 l -1.53193,7.25223 h -12.69207 l -0.32279,1.4896 c -0.32279,1.41023 0.36248,2.33627 2.17488,2.33627 h 9.22602 l -0.88636,4.23069 h -10.95904 c -3.02154,0 -5.03766,-2.61937 -4.43177,-5.43983 z m 11.9671,3.38402 0.4445,-2.0955 c 0.2831,-1.41022 -0.36248,-2.33627 -2.17488,-2.33627 h -2.82045 c -1.8124,0 -2.65907,0.52388 -3.06123,2.33627 l -0.4445,2.0955 z"
           id="path1841"
           style="stroke-width:0.264583" /><path
           class="st0"
           d="m 147.40794,192.25952 h -4.63285 l -1.53194,7.25223 h -7.61471 c -3.62744,0 -5.64091,1.651 -6.40556,5.27844 l -2.13519,10.033 c -0.60325,2.82046 1.41023,5.43983 4.43177,5.43983 h 1.43934 1.82298 8.69949 l 0.88636,-4.17512 h -0.005 z m -8.94556,20.42583 c -0.0132,0.0609 -0.0291,0.11642 -0.0423,0.17728 l -0.67205,3.16441 h -3.17235 c -0.0608,0 -0.11906,0.005 -0.18256,0.005 h -2.2569 c -1.81239,0 -2.45798,-0.92604 -2.17487,-2.33627 l 1.61131,-7.61471 c 0.40217,-1.81239 1.24883,-2.33627 3.06123,-2.33627 h 5.72029 z"
           id="path1843"
           style="stroke-width:0.264583" /><path
           class="st1"
           d="m 107.64107,231.99994 h -7.88194 c -0.354542,0 -0.624417,-0.33073 -0.547688,-0.67734 l 9.170458,-43.37314 c 0.0529,-0.24606 0.26988,-0.42069 0.52388,-0.42069 h 7.88193 c 0.35454,0 0.62442,0.33073 0.54769,0.67733 l -9.17046,43.37315 c -0.0529,0.24606 -0.26987,0.42069 -0.52387,0.42069 z"
           id="path1847"
           style="stroke-width:0.264583" /><path
           class="st1"
           d="M 97.666276,220.16777 H 93.94888 c -0.354542,0 -0.624417,-0.33337 -0.547688,-0.67998 l 6.678088,-31.50658 c 0.0556,-0.24606 0.33337,-0.45244 0.58737,-0.45244 h 3.7174 c 0.35454,0 0.62441,0.36513 0.54768,0.71173 l -6.741579,31.50658 c -0.05292,0.24871 -0.269875,0.42069 -0.523875,0.42069 z"
           id="path1849"
           style="stroke-width:0.264583" /><path
           class="st1"
           d="m 114.29269,231.99994 h -2.45798 c -0.35454,0 -0.62441,-0.33338 -0.54768,-0.67734 l 6.60929,-31.37429 c 0.0529,-0.24606 0.26987,-0.41804 0.52387,-0.41804 h 2.52148 c 0.35454,0 0.62442,0.33338 0.54769,0.67733 l -6.67279,31.3743 c -0.0556,0.24606 -0.27252,0.41804 -0.52388,0.41804 z"
           id="path1851"
           style="stroke-width:0.264583" /><path
           class="st0"
           d="m 31.703006,204.67642 c 0.764645,-3.62744 2.78077,-5.27844 6.405562,-5.27844 h 6.447896 c 3.021541,0 5.037666,2.61937 4.43177,5.43983 l -1.531937,7.25223 H 34.764235 l -0.322792,1.48961 c -0.322792,1.41022 0.362479,2.33627 2.174875,2.33627 h 9.226021 l -0.886354,4.23068 H 33.996943 c -3.021542,0 -5.037667,-2.61937 -4.431771,-5.43983 z m 11.967104,3.38402 0.4445,-2.0955 c 0.283104,-1.41023 -0.36248,-2.33627 -2.174875,-2.33627 h -2.820459 c -1.812396,0 -2.659062,0.52387 -3.061229,2.33627 l -0.4445,2.0955 z"
           id="path1855"
           style="stroke-width:0.264583" /><path
           class="st0"
           d="m 68.440401,199.41915 h 4.521729 l -4.421187,20.75127 h -4.52173 z m 1.584854,-7.65705 h 4.632854 l -1.087437,5.23875 h -4.632854 z"
           id="path1857"
           style="stroke-width:0.264583" /><path
           class="st0"
           d="m 75.094672,204.80077 c 0.785812,-3.69887 2.807229,-5.38162 6.434666,-5.38162 h 9.630833 l -0.619125,2.87602 -1.70127,1.43933 h -6.323542 c -1.812396,0 -2.661708,0.53446 -3.074458,2.3839 l -1.568979,7.35541 c -0.288396,1.43934 0.34925,2.3839 2.164291,2.3839 h 7.614708 l -0.910166,4.31535 h -9.347729 c -3.021542,0 -5.021792,-2.66964 -4.402667,-5.54831 z"
           id="path1859"
           style="stroke-width:0.264583" /><path
           class="st0"
           d="m 23.905735,199.41915 h -0.764646 c -0.0053,0 -0.0079,0 -0.01323,0 h -2.860146 c -3.585104,0 -7.6835,-0.0397 -7.6835,-0.0397 l -4.3656248,20.58987 h 0.015875 l -0.042333,0.20373 h 4.6328538 l 2.780771,-13.17625 c 0.01323,-0.0609 0.0291,-0.11641 0.04233,-0.17727 l 0.672042,-3.16706 h 3.288771 c 0.02117,0 0.04233,-0.003 0.06614,-0.003 h 1.611313 c 1.812396,0 2.457979,0.92605 2.174875,2.33627 l -2.981854,14.18167 h 4.632854 l 3.222625,-15.31144 c 0.608541,-2.82045 -1.407584,-5.43718 -4.429125,-5.43718 z"
           id="path1861"
           style="stroke-width:0.264583" /><path
           class="st0"
           d="m 58.529109,199.40327 c -3.627437,0 -5.640916,1.651 -6.405562,5.27844 l -1.116542,5.23346 h 0.0053 l -2.19075,10.33462 h 4.632854 l 2.510896,-11.84804 h -0.0079 l 0.515938,-2.43417 c 0.402167,-1.81239 1.248833,-2.33627 3.061229,-2.33627 h 3.537479 l 1.693333,-1.41023 0.60325,-2.82045 h -6.839479 z"
           id="path1863"
           style="stroke-width:0.264583" /><path
           class="st0"
           d="m -8.8708481,204.67642 c 0.7646458,-3.62744 2.7807708,-5.27844 6.4055624,-5.27844 H 3.98261 c 3.0215417,0 5.0376667,2.61937 4.4317708,5.43983 l -1.5319375,7.25223 H -5.809619 l -0.3227917,1.48961 c -0.3227916,1.41022 0.3624792,2.33627 2.174875,2.33627 H 5.268485 l -0.8837083,4.23333 H -6.5742648 c -3.0215416,0 -5.0376662,-2.61938 -4.4317712,-5.43983 z m 11.967104,3.38402 0.4445,-2.0955 c 0.2831042,-1.41023 -0.3624792,-2.33627 -2.174875,-2.33627 h -2.8204583 c -1.8123958,0 -2.6590624,0.52387 -3.0612291,2.33627 l -0.4445,2.0955 z"
           id="path1865"
           style="stroke-width:0.264583" /><path
           class="st0"
           d="m -23.108077,199.47206 c -3.627438,0 -5.640917,1.651 -6.405563,5.27844 l -2.135187,10.033 c -0.60325,2.82046 1.410229,5.43983 4.431771,5.43983 h 7.281333 l -0.08996,0.42863 c -0.362479,1.81239 -1.209146,2.33627 -3.021542,2.33627 h -9.255125 l -0.886354,4.0296 h 11.149542 c 3.627437,0 5.640916,-1.651 6.405562,-5.27843 l 3.6195,-17.16088 1.084792,-5.10646 z m -3.667125,14.18431 0.153458,-0.71437 h -0.0026 l 1.021292,-4.80748 h -0.0026 l 0.4445,-2.0955 c 0.402167,-1.81239 1.248834,-2.33627 3.061229,-2.33627 h 2.820459 c 0.02381,0 0.04233,0.003 0.06615,0.003 h 2.608791 l -2.632604,12.28725 h -5.360458 c -1.815042,0 -2.497667,-0.92605 -2.177521,-2.33628 z"
           id="path1867"
           style="stroke-width:0.264583" /></g><path
         style="opacity:0.7;fill:#3a5050;fill-opacity:1;stroke-width:0.0747922"
         d="m 113.22595,58.019554 c -1.26205,0.37062 -2.48558,0.0644 -3.60371,-0.902027 -0.66983,-0.57892 -1.43374,-1.75757 -1.7566,-2.71028 -0.30473,-0.89922 -0.36344,-1.99301 -0.14949,-2.785097 0.22877,-0.84697 0.88989,-1.78076 1.51714,-2.14291 0.16984,-0.0981 0.19042,-0.0875 0.34206,0.17515 0.14719,0.25493 0.14711,0.3002 -0.001,0.51538 -0.32881,0.47834 -0.32805,0.48025 1.3831,3.495687 0.84254,1.4848 1.62157,2.81284 1.73081,2.95142 0.21825,0.27629 0.66016,0.47495 0.9517,0.42782 0.15609,-0.0252 0.21098,0.0156 0.35395,0.26321 l 0.1692,0.29308 -0.27846,0.153417 c -0.15323,0.0842 -0.44967,0.2037 -0.65891,0.26516 z m 1.22619,-0.965427 c -0.13378,-0.23172 -0.15244,-0.32487 -0.0802,-0.40059 0.0518,-0.0543 0.22498,-0.2935 0.38485,-0.53164 0.35723,-0.53212 0.52566,-1.25388 0.41645,-1.78466 -0.1031,-0.50108 0.0456,-0.771 0.37593,-0.68248 0.84133,0.22543 0.37291,2.74497 -0.65081,3.50057 l -0.27194,0.20075 z M 89.331019,71.681088 c -0.2184,0.0286 -0.42646,-0.15387 -0.39375,-0.34542 0.0136,-0.0796 0.0956,-0.23771 0.18237,-0.35146 0.12974,-0.17015 0.13818,-0.2545 0.0476,-0.47591 -0.16355,-0.39999 -3.21769,-5.676437 -3.43366,-5.932157 -0.15045,-0.17814 -0.25116,-0.21927 -0.52805,-0.21565 -0.40256,0.005 -0.52926,-0.10695 -0.4509,-0.39936 0.0548,-0.20454 0.11272,-0.24387 1.53935,-1.045187 l 1.4824,-0.83266 2.099967,3.562437 2.09997,3.562447 0.34227,-0.004 c 0.3834,-0.005 0.50031,0.082 0.47144,0.34997 -0.0186,0.17256 -0.10778,0.23427 -1.65256,1.14341 -0.89807,0.52857 -1.71099,0.97127 -1.806457,0.9838 z m 6.550214,-3.855827 c -0.31165,-0.0494 -0.38303,-0.35272 -0.14562,-0.61887 0.0984,-0.11029 0.17024,-0.25513 0.15967,-0.32186 -0.0106,-0.0667 -0.82443,-1.51593 -1.808537,-3.22046 -1.57677,-2.731027 -1.80834,-3.104267 -1.94984,-3.142157 -0.0883,-0.0236 -0.19767,-0.0216 -0.24305,0.005 -0.11196,0.0647 -0.41969,-0.0413 -0.49404,-0.17006 -0.0332,-0.0575 -0.0218,-0.18736 0.0254,-0.28853 0.0714,-0.15312 0.32754,-0.32355 1.5287,-1.01704 l 1.44297,-0.8331 2.299867,3.9835 2.29986,3.983487 -1.4502,0.83727 c -1.30915,0.75584 -1.4711,0.83396 -1.66516,0.80323 z m 3.44657,-2.26353 c -0.15314,-0.26524 -0.16647,-0.33572 -0.0737,-0.38936 0.21448,-0.12392 0.6753,-0.88806 0.769577,-1.27604 0.0519,-0.21375 0.0769,-0.65536 0.0554,-0.981357 -0.0419,-0.63516 -0.007,-0.73709 0.26918,-0.78382 0.17483,-0.0296 0.18554,-0.0152 0.87004,1.170407 l 0.69304,1.20037 -1.19829,0.69183 -1.198277,0.69183 z m 3.608467,-1.73615 c -0.19689,0.0276 -0.37584,-0.0954 -0.37804,-0.26008 -10e-4,-0.0635 0.0614,-0.24186 0.13831,-0.39642 0.0802,-0.16125 0.12921,-0.458837 0.11486,-0.698267 l -0.025,-0.41725 -1.28078,-2.21839 c -0.70443,-1.2201 -1.26609,-2.226637 -1.24817,-2.236717 0.0179,-0.0101 0.27107,0.125477 0.56255,0.301247 l 0.52997,0.31958 1.07949,1.79492 c 1.23002,2.04518 1.2999,2.12117 2.00257,2.17683 0.44128,0.035 0.58233,0.17904 0.45101,0.46075 -0.0674,0.14472 -0.26621,0.28697 -0.93192,0.667017 -0.46541,0.26569 -0.92207,0.49373 -1.01482,0.50676 z m 0.54715,-4.961867 c -4.089477,-2.360357 -4.093987,-2.362717 -4.506387,-2.345447 -0.49606,0.0208 -0.71349,-0.17317 -0.55235,-0.49265 0.0828,-0.16415 0.31784,-0.31666 1.584577,-1.02822 l 1.48735,-0.83548 3.09318,1.79161 3.09318,1.791617 0.74144,1.2842 0.74143,1.2842 -0.7945,0.4563 -0.7945,0.4563 -4.09359,-2.36273 z m 14.41556,-3.676017 c -0.19325,0.0263 -0.3792,-0.12948 -0.38175,-0.31995 -0.001,-0.0712 0.0672,-0.2193 0.15142,-0.32908 0.0842,-0.10979 0.13932,-0.28524 0.1224,-0.38989 -0.0339,-0.20941 -3.33541,-5.966087 -3.53769,-6.168377 -0.0719,-0.072 -0.26448,-0.11847 -0.45029,-0.10882 -0.31459,0.0163 -0.38317,-0.0179 -0.47589,-0.23777 -0.10627,-0.25199 0.0378,-0.36728 1.55057,-1.24067 l 1.47787,-0.85325 2.27386,3.97693 2.27384,3.976917 -1.41764,0.83544 c -0.7797,0.4595 -1.49371,0.84582 -1.58668,0.85851 z m 3.32183,-2.2659 c -0.13914,-0.241 -0.16276,-0.33784 -0.0922,-0.37856 0.0521,-0.0301 0.22214,-0.209327 0.37789,-0.398347 0.37381,-0.45369 0.55233,-1.14001 0.49416,-1.8998 -0.0248,-0.32474 -0.0119,-0.63153 0.0288,-0.68176 0.0407,-0.0502 0.16876,-0.086 0.28459,-0.0794 0.20836,0.0118 0.21776,0.0243 0.88288,1.17631 l 0.67227,1.1644 -1.23068,0.710527 -1.23067,0.71053 z M 92.242466,66.666761 c -0.0883,-0.0236 -0.18066,-0.0772 -0.20525,-0.119 -0.13115,-0.22298 -0.77839,-0.57435 -1.06278,-0.57704 -0.28431,-0.003 -0.32115,-0.0264 -0.48715,-0.31396 -0.16508,-0.28592 -0.16771,-0.33213 -0.0324,-0.57166 0.14768,-0.26148 0.16358,-0.64939 0.0486,-1.18661 -0.0747,-0.34905 0.12422,-0.60892 0.37972,-0.4961 0.19464,0.0859 1.75139,2.74141 1.75977,3.00178 0.006,0.19823 -0.18138,0.32132 -0.40055,0.2626 z m 6.704027,-3.826707 c -0.0819,-3.3e-4 -0.25257,-0.10465 -0.37924,-0.23182 -0.31901,-0.32025 -0.69008,-0.50749 -0.97917,-0.49408 -0.21962,0.0102 -0.26283,-0.0209 -0.42926,-0.30921 -0.16643,-0.28827 -0.17178,-0.34125 -0.0531,-0.52636 0.15339,-0.23934 0.17851,-0.64519 0.0682,-1.10269 -0.0428,-0.17771 -0.0578,-0.37746 -0.0332,-0.4439 0.0669,-0.1807 0.3819,-0.23978 0.52349,-0.0982 0.0681,0.0681 0.46121,0.70732 0.87364,1.42051 0.61882,1.06976 0.74672,1.33209 0.73211,1.49888 -0.0193,0.22059 -0.0951,0.28781 -0.3235,0.28687 z M 120.81395,50.1556 c -0.0904,-0.0309 -0.2682,-0.15174 -0.39501,-0.26853 -0.29427,-0.271 -0.74492,-0.46504 -0.98856,-0.42566 -0.16485,0.0267 -0.21385,-0.0111 -0.37393,-0.28839 -0.17143,-0.29693 -0.17366,-0.33773 -0.0324,-0.58785 0.10974,-0.19429 0.13718,-0.39798 0.099,-0.73501 -0.0723,-0.63824 -0.0718,-0.68977 0.007,-0.8402 0.0492,-0.0935 0.11419,-0.12997 0.22391,-0.12572 0.13866,0.005 0.24419,0.15703 1.02341,1.47057 0.60873,1.02619 0.86207,1.50401 0.8463,1.59634 -0.0309,0.1811 -0.2129,0.27181 -0.4101,0.20443 z m -14.31248,6.328437 -0.6313,-0.3829 -0.57524,-0.99322 c -0.68293,-1.1787 -0.88817,-1.37003 -1.51621,-1.41214 -0.4565,-0.0306 -0.63033,-0.19211 -0.50233,-0.4667 0.12637,-0.27113 1.74916,-1.210767 2.04608,-1.184747 0.32744,0.0287 0.40847,0.27815 0.20295,0.624797 -0.0974,0.16437 -0.18178,0.439 -0.18741,0.61031 -0.01,0.29346 0.0419,0.40613 0.8923,1.94947 l 0.90251,1.63801 z m 6.9036,-5.375897 c -0.0969,-0.0509 -0.32568,-0.23781 -0.50845,-0.41525 -0.70418,-0.6837 -1.6148,-1.0874 -2.33447,-1.03495 -0.34937,0.0255 -0.37184,0.0145 -0.52979,-0.2591 -0.11121,-0.19262 -0.13725,-0.30169 -0.0799,-0.33478 0.0467,-0.027 0.39418,-0.11099 0.77206,-0.18666 0.88986,-0.17819 1.05152,-0.27153 1.03635,-0.59834 -0.0142,-0.30542 0.27925,-0.52794 0.50844,-0.38559 0.20648,0.12826 1.74694,2.8187 1.70454,2.97699 -0.0554,0.20677 -0.37417,0.33999 -0.56873,0.23768 z M 91.011956,62.739604 c -0.67034,-0.46268 -1.32255,-0.61822 -1.952287,-0.4656 l -0.46071,0.11166 -0.17773,-0.30762 -0.17772,-0.30761 1.15511,-0.66691 c 0.635307,-0.36679 1.174197,-0.66186 1.197547,-0.65569 0.0233,0.006 0.32805,0.5395 0.67711,1.1852 l 0.63461,1.17401 -0.19618,0.14006 c -0.18881,0.134797 -0.21503,0.127097 -0.69973,-0.2075 z m 7.070217,-3.56206 c -0.0609,-0.0242 -0.29823,-0.18063 -0.52731,-0.34764 -0.55151,-0.40206 -1.23164,-0.55123 -1.84051,-0.40364 l -0.44387,0.10758 -0.17772,-0.30761 -0.17772,-0.30762 1.1659,-0.673127 1.1659,-0.67313 0.66914,1.158957 c 0.57566,0.99708 0.65797,1.17274 0.58937,1.25744 -0.12779,0.15777 -0.30368,0.23624 -0.42318,0.18879 z M 119.58143,46.24098 c -0.73352,-0.51748 -1.46272,-0.66132 -2.14187,-0.42249 -0.26376,0.0928 -0.26731,0.091 -0.44953,-0.22462 l -0.18366,-0.31811 1.19228,-0.66483 1.19229,-0.66484 0.62621,1.04352 c 0.69622,1.16018 0.74354,1.3179 0.44696,1.48914 -0.17299,0.0999 -0.23437,0.0785 -0.68269,-0.23778 z"
         id="path5622" /></g><g
       id="g7469"
       transform="translate(43.516152,-1.6517189)"><text
         xml:space="preserve"
         style="font-size:12.6932px;line-height:20.3092px;font-family:'Comic Sans MS';-inkscape-font-specification:'Comic Sans MS';letter-spacing:0px;stroke-width:0.264583"
         x="16.210291"
         y="143.36522"
         id="text7144"><tspan
           sodipodi:role="line"
           id="tspan7142"
           style="font-style:normal;font-variant:normal;font-weight:normal;font-stretch:normal;font-size:12.6932px;font-family:'Titillium Web';-inkscape-font-specification:'Titillium Web';stroke-width:0.264583"
           x="16.210291"
           y="143.36522">Package Loss</tspan></text><g
         id="g7170"
         transform="matrix(0.40307959,0,0,0.40307959,17.904238,36.431273)"><path
           class="st0"
           d="m 147.94505,204.69758 c 0.76464,-3.62743 2.78077,-5.27843 6.40556,-5.27843 h 6.44789 c 3.02155,0 5.03767,2.61937 4.43177,5.43983 l -1.53193,7.25223 h -12.69207 l -0.32279,1.4896 c -0.32279,1.41023 0.36248,2.33627 2.17488,2.33627 h 9.22602 l -0.88636,4.23069 h -10.95904 c -3.02154,0 -5.03766,-2.61937 -4.43177,-5.43983 z m 11.9671,3.38402 0.4445,-2.0955 c 0.2831,-1.41022 -0.36248,-2.33627 -2.17488,-2.33627 h -2.82045 c -1.8124,0 -2.65907,0.52388 -3.06123,2.33627 l -0.4445,2.0955 z"
           id="path7146"
           style="stroke-width:0.264583" /><path
           class="st0"
           d="m 147.40794,192.25952 h -4.63285 l -1.53194,7.25223 h -7.61471 c -3.62744,0 -5.64091,1.651 -6.40556,5.27844 l -2.13519,10.033 c -0.60325,2.82046 1.41023,5.43983 4.43177,5.43983 h 1.43934 1.82298 8.69949 l 0.88636,-4.17512 h -0.005 z m -8.94556,20.42583 c -0.0132,0.0609 -0.0291,0.11642 -0.0423,0.17728 l -0.67205,3.16441 h -3.17235 c -0.0608,0 -0.11906,0.005 -0.18256,0.005 h -2.2569 c -1.81239,0 -2.45798,-0.92604 -2.17487,-2.33627 l 1.61131,-7.61471 c 0.40217,-1.81239 1.24883,-2.33627 3.06123,-2.33627 h 5.72029 z"
           id="path7148"
           style="stroke-width:0.264583" /><path
           class="st1"
           d="m 107.64107,231.99994 h -7.88194 c -0.354542,0 -0.624417,-0.33073 -0.547688,-0.67734 l 9.170458,-43.37314 c 0.0529,-0.24606 0.26988,-0.42069 0.52388,-0.42069 h 7.88193 c 0.35454,0 0.62442,0.33073 0.54769,0.67733 l -9.17046,43.37315 c -0.0529,0.24606 -0.26987,0.42069 -0.52387,0.42069 z"
           id="path7150"
           style="stroke-width:0.264583" /><path
           class="st1"
           d="M 97.666276,220.16777 H 93.94888 c -0.354542,0 -0.624417,-0.33337 -0.547688,-0.67998 l 6.678088,-31.50658 c 0.0556,-0.24606 0.33337,-0.45244 0.58737,-0.45244 h 3.7174 c 0.35454,0 0.62441,0.36513 0.54768,0.71173 l -6.741579,31.50658 c -0.05292,0.24871 -0.269875,0.42069 -0.523875,0.42069 z"
           id="path7152"
           style="stroke-width:0.264583" /><path
           class="st1"
           d="m 114.29269,231.99994 h -2.45798 c -0.35454,0 -0.62441,-0.33338 -0.54768,-0.67734 l 6.60929,-31.37429 c 0.0529,-0.24606 0.26987,-0.41804 0.52387,-0.41804 h 2.52148 c 0.35454,0 0.62442,0.33338 0.54769,0.67733 l -6.67279,31.3743 c -0.0556,0.24606 -0.27252,0.41804 -0.52388,0.41804 z"
           id="path7154"
           style="stroke-width:0.264583" /><path
           class="st0"
           d="m 31.703006,204.67642 c 0.764645,-3.62744 2.78077,-5.27844 6.405562,-5.27844 h 6.447896 c 3.021541,0 5.037666,2.61937 4.43177,5.43983 l -1.531937,7.25223 H 34.764235 l -0.322792,1.48961 c -0.322792,1.41022 0.362479,2.33627 2.174875,2.33627 h 9.226021 l -0.886354,4.23068 H 33.996943 c -3.021542,0 -5.037667,-2.61937 -4.431771,-5.43983 z m 11.967104,3.38402 0.4445,-2.0955 c 0.283104,-1.41023 -0.36248,-2.33627 -2.174875,-2.33627 h -2.820459 c -1.812396,0 -2.659062,0.52387 -3.061229,2.33627 l -0.4445,2.0955 z"
           id="path7156"
           style="stroke-width:0.264583" /><path
           class="st0"
           d="m 68.440401,199.41915 h 4.521729 l -4.421187,20.75127 h -4.52173 z m 1.584854,-7.65705 h 4.632854 l -1.087437,5.23875 h -4.632854 z"
           id="path7158"
           style="stroke-width:0.264583" /><path
           class="st0"
           d="m 75.094672,204.80077 c 0.785812,-3.69887 2.807229,-5.38162 6.434666,-5.38162 h 9.630833 l -0.619125,2.87602 -1.70127,1.43933 h -6.323542 c -1.812396,0 -2.661708,0.53446 -3.074458,2.3839 l -1.568979,7.35541 c -0.288396,1.43934 0.34925,2.3839 2.164291,2.3839 h 7.614708 l -0.910166,4.31535 h -9.347729 c -3.021542,0 -5.021792,-2.66964 -4.402667,-5.54831 z"
           id="path7160"
           style="stroke-width:0.264583" /><path
           class="st0"
           d="m 23.905735,199.41915 h -0.764646 c -0.0053,0 -0.0079,0 -0.01323,0 h -2.860146 c -3.585104,0 -7.6835,-0.0397 -7.6835,-0.0397 l -4.3656248,20.58987 h 0.015875 l -0.042333,0.20373 h 4.6328538 l 2.780771,-13.17625 c 0.01323,-0.0609 0.0291,-0.11641 0.04233,-0.17727 l 0.672042,-3.16706 h 3.288771 c 0.02117,0 0.04233,-0.003 0.06614,-0.003 h 1.611313 c 1.812396,0 2.457979,0.92605 2.174875,2.33627 l -2.981854,14.18167 h 4.632854 l 3.222625,-15.31144 c 0.608541,-2.82045 -1.407584,-5.43718 -4.429125,-5.43718 z"
           id="path7162"
           style="stroke-width:0.264583" /><path
           class="st0"
           d="m 58.529109,199.40327 c -3.627437,0 -5.640916,1.651 -6.405562,5.27844 l -1.116542,5.23346 h 0.0053 l -2.19075,10.33462 h 4.632854 l 2.510896,-11.84804 h -0.0079 l 0.515938,-2.43417 c 0.402167,-1.81239 1.248833,-2.33627 3.061229,-2.33627 h 3.537479 l 1.693333,-1.41023 0.60325,-2.82045 h -6.839479 z"
           id="path7164"
           style="stroke-width:0.264583" /><path
           class="st0"
           d="m -8.8708481,204.67642 c 0.7646458,-3.62744 2.7807708,-5.27844 6.4055624,-5.27844 H 3.98261 c 3.0215417,0 5.0376667,2.61937 4.4317708,5.43983 l -1.5319375,7.25223 H -5.809619 l -0.3227917,1.48961 c -0.3227916,1.41022 0.3624792,2.33627 2.174875,2.33627 H 5.268485 l -0.8837083,4.23333 H -6.5742648 c -3.0215416,0 -5.0376662,-2.61938 -4.4317712,-5.43983 z m 11.967104,3.38402 0.4445,-2.0955 c 0.2831042,-1.41023 -0.3624792,-2.33627 -2.174875,-2.33627 h -2.8204583 c -1.8123958,0 -2.6590624,0.52387 -3.0612291,2.33627 l -0.4445,2.0955 z"
           id="path7166"
           style="stroke-width:0.264583" /><path
           class="st0"
           d="m -23.108077,199.47206 c -3.627438,0 -5.640917,1.651 -6.405563,5.27844 l -2.135187,10.033 c -0.60325,2.82046 1.410229,5.43983 4.431771,5.43983 h 7.281333 l -0.08996,0.42863 c -0.362479,1.81239 -1.209146,2.33627 -3.021542,2.33627 h -9.255125 l -0.886354,4.0296 h 11.149542 c 3.627437,0 5.640916,-1.651 6.405562,-5.27843 l 3.6195,-17.16088 1.084792,-5.10646 z m -3.667125,14.18431 0.153458,-0.71437 h -0.0026 l 1.021292,-4.80748 h -0.0026 l 0.4445,-2.0955 c 0.402167,-1.81239 1.248834,-2.33627 3.061229,-2.33627 h 2.820459 c 0.02381,0 0.04233,0.003 0.06615,0.003 h 2.608791 l -2.632604,12.28725 h -5.360458 c -1.815042,0 -2.497667,-0.92605 -2.177521,-2.33628 z"
           id="path7168"
           style="stroke-width:0.264583" /></g><path
         style="fill:#050505;stroke:none;stroke-width:0.10091"
         d="m 81.810952,119.11847 -1.78475,1.14695 c 0.36364,0.38488 0.88617,0.62654 1.41741,0.43682 0.44859,-0.1603 0.86977,-0.65632 1.33944,-0.2738 1.816247,1.4793 3.148507,3.90955 4.748247,5.64122 0.93367,1.01068 1.55829,1.99808 2.952337,1.20848 -1.266007,-2.0919 -3.239397,-3.97162 -4.819437,-5.84003 -0.34636,-0.40955 -1.628857,-1.51106 -1.52632,-2.07806 0.10832,-0.59857 1.882,-1.27335 2.38589,-1.56428 0.27908,0.48358 0.33968,1.18676 0.63991,1.60686 0.1671,0.23374 0.48249,0.25708 0.69929,0.42694 0.71072,0.55691 1.31934,1.52512 2.423117,1.0518 0.4538,-0.19465 0.48175,-0.8308 0.52567,-1.25 0.13361,-1.27497 0.43238,-2.83139 0.2329,-4.09618 l 0.0874,-0.0504 c 0.41203,0.68077 1.05621,1.93234 1.7518,2.34114 0.34865,0.20489 1.21302,-0.0534 1.38926,-0.42969 0.28066,-0.59888 -0.7768,-2.43226 -1.08061,-2.98452 l 0.0874,-0.0505 c 1.23153,1.28241 2.320947,2.57195 3.747267,3.66255 0.9374,0.71687 1.84344,1.12186 2.76576,0.151 -1.51278,-0.64963 -2.40533,-1.88598 -3.65521,-2.90006 l 3.52628,-0.75417 c -1.38413,-1.64501 -3.1791,-2.68392 -4.30122,-4.62446 l 0.0874,-0.0504 c 0.60853,0.65176 1.446,1.5465 2.37042,1.07838 0.44874,0.59116 0.47794,1.25689 0.85109,1.82691 0.15968,0.24386 0.47141,0.26837 0.68886,0.44217 0.653237,0.52216 0.855767,1.07639 1.806137,1.10447 1.67699,0.0495 1.30876,-3.37907 1.38808,-4.59206 0.0314,-0.48237 0.2124,-1.26383 -0.0824,-1.69387 -0.41445,-0.60444 -1.19582,0.12095 -1.35017,0.55736 -0.39936,1.1287 -0.49857,2.75528 -0.40324,3.94422 -0.929257,-0.70678 -0.67299,-2.18505 -0.65524,-3.23384 0.008,-0.47395 -0.0792,-1.04852 0.3344,-1.35828 -0.31969,-0.65987 -0.10034,-1.35645 0.11204,-2.02576 0.0824,-0.25957 0.34731,-0.74255 0.0931,-0.97999 -0.757667,-0.70768 -1.454507,0.87714 -1.944077,0.96866 -0.72294,0.13513 -1.42253,-0.30866 -2.14809,0.14808 -1.19011,0.74921 0.53619,3.53683 1.00674,4.36758 l -0.0874,0.0505 c -0.53891,-0.67712 -1.77683,-1.91004 -2.61506,-2.16833 -0.625607,-0.19275 -1.186997,0.4668 -1.089387,1.04677 0.34852,2.07129 2.271517,3.4464 3.483807,4.97762 l -1.41177,0.58204 c -0.85687,-1.12247 -1.793347,-2.09708 -2.505607,-3.33074 -0.25897,-0.44855 -0.60248,-1.43265 -1.08285,-1.66809 -0.44141,-0.21639 -0.81353,0.3062 -0.83111,0.6913 -0.041,0.8971 0.25634,2.18873 0.63377,2.99765 l -0.0874,0.0504 c -0.20049,-0.34727 -0.41657,-0.9502 -0.79336,-1.1362 -1.27927,-0.63147 -0.86805,1.46505 -0.60489,1.94348 -1.781377,0.53661 -0.9919,3.39609 -1.430587,4.78766 -0.82087,-1.42407 -0.41014,-3.0085 -0.54608,-4.57859 l 0.31263,-0.064 c -0.44554,-1.01771 0.42229,-1.82563 0.35446,-2.79965 -0.0544,-0.78022 -1.26611,-0.0944 -1.5048,0.20175 -0.18886,0.23435 -0.31403,0.51362 -0.49753,0.7528 -0.73661,-0.51194 -2.56048,-0.52259 -2.59105,0.68543 -0.0281,1.10855 0.7095,2.31205 1.24422,3.23823 l -2.746037,1.70194 -1.3857,-1.99646 0.0874,-0.0504 c 0.96703,0.61761 2.22866,0.41063 3.052397,-0.36406 -0.45009,-0.49906 -1.199727,-0.19563 -1.810467,-0.46958 -1.28274,-0.57523 -2.20613,-1.88399 -3.47191,-2.39658 -0.45679,-0.18497 -1.241037,0.17112 -1.399017,0.6574 -0.147,0.4525 0.51578,1.21004 0.771027,1.54289 0.94625,1.23389 1.71189,2.76219 2.84543,3.83367 m 4.529817,-5.87788 c 0.69657,0.75018 0.65754,1.17863 0.67306,2.17487 l -0.0874,0.0504 -0.76045,-2.12441 0.17478,-0.10091 m 11.448164,-6.6096 c 0.84241,0.62839 0.74509,1.1995 0.67306,2.17486 l -0.0874,0.0505 c -0.30958,-0.64942 -0.76676,-1.50002 -0.58567,-2.22532 z"
         id="path7140" /></g><text
       xml:space="preserve"
       style="font-size:12.6932px;line-height:20.3092px;font-family:'Comic Sans MS';-inkscape-font-specification:'Comic Sans MS';letter-spacing:0px;stroke-width:0.264583"
       x="55.419895"
       y="194.43724"
       id="text7190"><tspan
         sodipodi:role="line"
         id="tspan7188"
         style="font-style:normal;font-variant:normal;font-weight:normal;font-stretch:normal;font-size:12.6932px;font-family:'Titillium Web';-inkscape-font-specification:'Titillium Web';stroke-width:0.264583"
         x="55.419895"
         y="194.43724">Package Loss</tspan></text><g
       id="g7216"
       transform="matrix(0.40307959,0,0,0.40307959,57.11384,87.503299)"><path
         class="st0"
         d="m 147.94505,204.69758 c 0.76464,-3.62743 2.78077,-5.27843 6.40556,-5.27843 h 6.44789 c 3.02155,0 5.03767,2.61937 4.43177,5.43983 l -1.53193,7.25223 h -12.69207 l -0.32279,1.4896 c -0.32279,1.41023 0.36248,2.33627 2.17488,2.33627 h 9.22602 l -0.88636,4.23069 h -10.95904 c -3.02154,0 -5.03766,-2.61937 -4.43177,-5.43983 z m 11.9671,3.38402 0.4445,-2.0955 c 0.2831,-1.41022 -0.36248,-2.33627 -2.17488,-2.33627 h -2.82045 c -1.8124,0 -2.65907,0.52388 -3.06123,2.33627 l -0.4445,2.0955 z"
         id="path7192"
         style="stroke-width:0.264583" /><path
         class="st0"
         d="m 147.40794,192.25952 h -4.63285 l -1.53194,7.25223 h -7.61471 c -3.62744,0 -5.64091,1.651 -6.40556,5.27844 l -2.13519,10.033 c -0.60325,2.82046 1.41023,5.43983 4.43177,5.43983 h 1.43934 1.82298 8.69949 l 0.88636,-4.17512 h -0.005 z m -8.94556,20.42583 c -0.0132,0.0609 -0.0291,0.11642 -0.0423,0.17728 l -0.67205,3.16441 h -3.17235 c -0.0608,0 -0.11906,0.005 -0.18256,0.005 h -2.2569 c -1.81239,0 -2.45798,-0.92604 -2.17487,-2.33627 l 1.61131,-7.61471 c 0.40217,-1.81239 1.24883,-2.33627 3.06123,-2.33627 h 5.72029 z"
         id="path7194"
         style="stroke-width:0.264583" /><path
         class="st1"
         d="m 107.64107,231.99994 h -7.88194 c -0.354542,0 -0.624417,-0.33073 -0.547688,-0.67734 l 9.170458,-43.37314 c 0.0529,-0.24606 0.26988,-0.42069 0.52388,-0.42069 h 7.88193 c 0.35454,0 0.62442,0.33073 0.54769,0.67733 l -9.17046,43.37315 c -0.0529,0.24606 -0.26987,0.42069 -0.52387,0.42069 z"
         id="path7196"
         style="stroke-width:0.264583" /><path
         class="st1"
         d="M 97.666276,220.16777 H 93.94888 c -0.354542,0 -0.624417,-0.33337 -0.547688,-0.67998 l 6.678088,-31.50658 c 0.0556,-0.24606 0.33337,-0.45244 0.58737,-0.45244 h 3.7174 c 0.35454,0 0.62441,0.36513 0.54768,0.71173 l -6.741579,31.50658 c -0.05292,0.24871 -0.269875,0.42069 -0.523875,0.42069 z"
         id="path7198"
         style="stroke-width:0.264583" /><path
         class="st1"
         d="m 114.29269,231.99994 h -2.45798 c -0.35454,0 -0.62441,-0.33338 -0.54768,-0.67734 l 6.60929,-31.37429 c 0.0529,-0.24606 0.26987,-0.41804 0.52387,-0.41804 h 2.52148 c 0.35454,0 0.62442,0.33338 0.54769,0.67733 l -6.67279,31.3743 c -0.0556,0.24606 -0.27252,0.41804 -0.52388,0.41804 z"
         id="path7200"
         style="stroke-width:0.264583" /><path
         class="st0"
         d="m 31.703006,204.67642 c 0.764645,-3.62744 2.78077,-5.27844 6.405562,-5.27844 h 6.447896 c 3.021541,0 5.037666,2.61937 4.43177,5.43983 l -1.531937,7.25223 H 34.764235 l -0.322792,1.48961 c -0.322792,1.41022 0.362479,2.33627 2.174875,2.33627 h 9.226021 l -0.886354,4.23068 H 33.996943 c -3.021542,0 -5.037667,-2.61937 -4.431771,-5.43983 z m 11.967104,3.38402 0.4445,-2.0955 c 0.283104,-1.41023 -0.36248,-2.33627 -2.174875,-2.33627 h -2.820459 c -1.812396,0 -2.659062,0.52387 -3.061229,2.33627 l -0.4445,2.0955 z"
         id="path7202"
         style="stroke-width:0.264583" /><path
         class="st0"
         d="m 68.440401,199.41915 h 4.521729 l -4.421187,20.75127 h -4.52173 z m 1.584854,-7.65705 h 4.632854 l -1.087437,5.23875 h -4.632854 z"
         id="path7204"
         style="stroke-width:0.264583" /><path
         class="st0"
         d="m 75.094672,204.80077 c 0.785812,-3.69887 2.807229,-5.38162 6.434666,-5.38162 h 9.630833 l -0.619125,2.87602 -1.70127,1.43933 h -6.323542 c -1.812396,0 -2.661708,0.53446 -3.074458,2.3839 l -1.568979,7.35541 c -0.288396,1.43934 0.34925,2.3839 2.164291,2.3839 h 7.614708 l -0.910166,4.31535 h -9.347729 c -3.021542,0 -5.021792,-2.66964 -4.402667,-5.54831 z"
         id="path7206"
         style="stroke-width:0.264583" /><path
         class="st0"
         d="m 23.905735,199.41915 h -0.764646 c -0.0053,0 -0.0079,0 -0.01323,0 h -2.860146 c -3.585104,0 -7.6835,-0.0397 -7.6835,-0.0397 l -4.3656248,20.58987 h 0.015875 l -0.042333,0.20373 h 4.6328538 l 2.780771,-13.17625 c 0.01323,-0.0609 0.0291,-0.11641 0.04233,-0.17727 l 0.672042,-3.16706 h 3.288771 c 0.02117,0 0.04233,-0.003 0.06614,-0.003 h 1.611313 c 1.812396,0 2.457979,0.92605 2.174875,2.33627 l -2.981854,14.18167 h 4.632854 l 3.222625,-15.31144 c 0.608541,-2.82045 -1.407584,-5.43718 -4.429125,-5.43718 z"
         id="path7208"
         style="stroke-width:0.264583" /><path
         class="st0"
         d="m 58.529109,199.40327 c -3.627437,0 -5.640916,1.651 -6.405562,5.27844 l -1.116542,5.23346 h 0.0053 l -2.19075,10.33462 h 4.632854 l 2.510896,-11.84804 h -0.0079 l 0.515938,-2.43417 c 0.402167,-1.81239 1.248833,-2.33627 3.061229,-2.33627 h 3.537479 l 1.693333,-1.41023 0.60325,-2.82045 h -6.839479 z"
         id="path7210"
         style="stroke-width:0.264583" /><path
         class="st0"
         d="m -8.8708481,204.67642 c 0.7646458,-3.62744 2.7807708,-5.27844 6.4055624,-5.27844 H 3.98261 c 3.0215417,0 5.0376667,2.61937 4.4317708,5.43983 l -1.5319375,7.25223 H -5.809619 l -0.3227917,1.48961 c -0.3227916,1.41022 0.3624792,2.33627 2.174875,2.33627 H 5.268485 l -0.8837083,4.23333 H -6.5742648 c -3.0215416,0 -5.0376662,-2.61938 -4.4317712,-5.43983 z m 11.967104,3.38402 0.4445,-2.0955 c 0.2831042,-1.41023 -0.3624792,-2.33627 -2.174875,-2.33627 h -2.8204583 c -1.8123958,0 -2.6590624,0.52387 -3.0612291,2.33627 l -0.4445,2.0955 z"
         id="path7212"
         style="stroke-width:0.264583" /><path
         class="st0"
         d="m -23.108077,199.47206 c -3.627438,0 -5.640917,1.651 -6.405563,5.27844 l -2.135187,10.033 c -0.60325,2.82046 1.410229,5.43983 4.431771,5.43983 h 7.281333 l -0.08996,0.42863 c -0.362479,1.81239 -1.209146,2.33627 -3.021542,2.33627 h -9.255125 l -0.886354,4.0296 h 11.149542 c 3.627437,0 5.640916,-1.651 6.405562,-5.27843 l 3.6195,-17.16088 1.084792,-5.10646 z m -3.667125,14.18431 0.153458,-0.71437 h -0.0026 l 1.021292,-4.80748 h -0.0026 l 0.4445,-2.0955 c 0.402167,-1.81239 1.248834,-2.33627 3.061229,-2.33627 h 2.820459 c 0.02381,0 0.04233,0.003 0.06615,0.003 h 2.608791 l -2.632604,12.28725 h -5.360458 c -1.815042,0 -2.497667,-0.92605 -2.177521,-2.33628 z"
         id="path7214"
         style="stroke-width:0.264583" /></g><path
       style="fill:#cc0000;stroke:none;stroke-width:0.0807381"
       d="m 120.51175,169.62013 -0.23932,0.2314 c 1.05058,2.01457 1.6107,5.20246 3.90669,6.19855 0.36897,0.16006 1.19686,-0.78667 1.6668,-0.86799 0.35601,-0.0616 0.65425,0.82445 0.91329,0.60367 0.24424,-0.20814 -0.29794,-0.62536 -0.39671,-0.78007 -0.42459,-0.66505 -0.16997,-1.29759 -0.96763,-1.77205 l 0.14776,-0.55146 0.0699,-0.0404 0.56517,0.9789 0.20977,-0.12111 -0.5248,-0.90898 0.13984,-0.0807 0.20185,0.34961 0.27968,-0.16148 -0.24221,-0.41952 0.13984,-0.0808 0.56517,0.97891 0.27968,-0.16148 c -0.1375,-0.19647 -0.42544,-0.4065 -0.4829,-0.64071 -0.0748,-0.30482 0.28793,-0.52424 0.54782,-0.39496 0.4274,0.21257 0.23369,0.81218 0.82533,0.80137 l -0.4657,-1.12956 0.48443,0.83906 0.1103,0.0296 0.13984,-0.0807 c -0.10412,-0.36669 -0.40514,-0.55089 -0.56745,-0.88435 -0.35432,-0.72819 -0.40389,-2.16382 -1.38614,-2.4093 -0.72312,-0.18075 -2.21114,1.03915 -2.71106,1.51181 l -0.96886,-1.67811 c 1.2305,-0.51326 2.36754,-0.84469 3.32668,-1.82744 0.0881,0.32384 0.0972,0.61832 0.47361,0.65885 l -0.2934,-0.66967 0.0699,-0.0404 0.92057,2.07891 c 0.69163,-0.47287 -0.48728,-1.65139 -0.8211,-2.22957 l 0.0699,-0.0404 c 0.33737,0.25106 0.80187,0.37432 1.0944,0.67335 0.37302,0.38111 0.2396,1.17312 0.89663,1.16045 l -0.69709,-1.36888 1.0409,-0.13483 c -0.0892,0.94341 -0.10573,1.99358 0.43789,2.82374 0.60677,0.92663 1.62352,1.12701 1.78821,2.3238 0.34927,-0.10796 0.36848,-0.27623 0.21768,-0.59182 0.55514,0.003 0.71805,1.19718 1.0217,1.09561 0.21237,-0.0711 0.0353,-0.3506 -0.0414,-0.45006 -0.25524,-0.331 -0.61234,-0.64253 -0.1304,-0.94977 l 0.21267,0.52982 0.27968,-0.16147 c -0.0644,-0.0961 -0.41666,-0.51386 -0.16848,-0.58974 0.45953,-0.14048 0.46667,1.23734 0.9427,0.9625 0.32639,-0.18844 -1.2615,-1.572 0.0941,-1.58993 0.57362,-0.008 0.65419,1.49079 1.1663,1.19513 0.13271,-0.0766 0.11333,-0.23259 0.0494,-0.34762 -0.1579,-0.2838 -0.52546,-0.41924 -0.63524,-0.73921 -0.19433,-0.56669 0.45627,0.036 0.55722,0.22993 0.0776,0.14918 0.12743,0.29822 0.17529,0.45863 0.71968,-0.22243 -0.0854,-0.79693 -0.35541,-1.10001 0.2015,-0.21487 0.21228,-0.34799 0.10739,-0.62138 0.54822,-0.0106 0.65591,1.13423 0.98125,1.02573 0.38984,-0.13007 -0.89366,-0.97365 -0.13137,-1.32994 l 0.28259,0.48945 0.13984,-0.0807 c -0.0413,-0.13002 -0.37331,-0.62689 -0.1397,-0.69958 0.47221,-0.14695 0.47295,1.28694 0.96093,1.00521 0.35331,-0.20398 -0.41765,-0.77245 -0.49986,-0.95732 -0.48311,-1.08594 -0.45575,-2.3194 -1.07043,-3.39082 l 0.0699,-0.0404 c 0.55277,0.8037 1.33023,1.32143 1.95626,2.04032 0.19635,0.22544 0.13199,0.79782 0.40911,0.91546 0.4044,0.1716 0.23623,-0.43294 0.12883,-0.57343 0.82377,-0.42629 0.78341,1.55342 1.29375,1.27183 0.55153,-0.30426 -1.0471,-1.16354 -0.49125,-1.61144 0.3037,-0.2447 0.35394,0.52051 0.65479,0.41412 0.30629,-0.10831 -0.45647,-0.96876 0.0608,-0.88087 0.41358,0.0703 0.66677,1.64529 1.15724,1.26935 0.35473,-0.27193 -0.67408,-1.05223 -0.71991,-1.40549 -0.0984,-0.75813 -0.048,-1.49668 -0.35766,-2.21745 -0.61149,-1.42343 -2.09718,-2.62061 -3.03096,-3.8438 l 0.0699,-0.0404 c 1.76308,2.2244 4.81178,3.12032 7.2396,4.30403 l 0.0699,-0.0404 c 0.2044,-1.2223 0.87514,-0.24124 1.31267,0.17441 l 0.13985,-0.0807 -0.45873,-0.93874 -0.63994,-2.90193 0.0699,-0.0404 1.75921,1.31504 0.36375,0.90873 c 0.24714,-0.20346 0.2424,-0.33908 0.10739,-0.62137 0.78431,-0.0154 0.46673,1.09745 1.18654,1.08629 -0.0548,-0.22043 -0.83893,-1.13511 -0.4753,-1.25164 0.18324,-0.0587 0.35939,0.28466 0.63098,0.22948 -0.17786,-0.29513 -0.34208,-0.50452 -0.0836,-0.79077 0.0941,0.16291 0.19306,0.32419 0.27994,0.49116 0.0514,0.099 0.75537,1.15316 0.6927,0.48993 -0.0337,-0.35637 -1.24066,-1.23088 -0.1071,-1.41015 0.56159,-0.0888 0.90122,1.47943 1.29573,1.14641 0.37055,-0.31285 -0.99217,-0.9371 -0.47233,-1.50601 l 0.68627,1.18867 c 0.48363,-0.39828 -0.13124,-0.83722 -0.46569,-1.12956 l 0.46781,-0.64301 c 0.0799,0.14137 0.16222,0.28047 0.2197,0.433 0.0439,0.11645 0.56325,0.99315 0.49702,0.42699 -0.0522,-0.44581 -0.93961,-0.80635 -0.26764,-1.2125 l 0.21267,0.52982 0.27969,-0.16147 -0.36333,-0.6293 c 0.51409,-0.0101 0.83385,1.23063 1.1664,1.03864 0.13026,-0.0752 0.0965,-0.23155 0.0329,-0.33812 -0.3026,-0.50765 -0.58023,-0.574 -0.59685,-1.23481 -0.0215,-0.85498 0.43468,-1.6079 0.25803,-2.47969 -0.13382,-0.66018 -0.5912,-0.99799 -0.99594,-1.47602 -0.4455,-0.52601 -0.83457,-1.22704 -1.18458,-1.83326 l 0.0699,-0.0404 0.93574,0.67174 0.65449,1.11378 0.13985,-0.0807 -0.6971,-1.36887 1.0409,-0.13483 c -0.0671,0.95844 -0.10088,1.97307 0.4495,2.81703 0.61225,0.93886 1.61331,1.12742 1.77661,2.33051 0.34927,-0.10796 0.36848,-0.27623 0.21768,-0.59182 0.59781,-0.0117 0.53606,0.54448 0.77432,0.94587 0.0614,0.10328 0.23892,0.25185 0.32637,0.0804 0.18763,-0.36806 -0.82623,-0.8168 -0.43755,-1.1638 0.18265,-0.16307 0.34476,0.2574 0.3994,0.36318 l 0.27969,-0.16148 c -0.0644,-0.0961 -0.41673,-0.51381 -0.16847,-0.58973 0.46215,-0.14125 0.48099,1.22906 0.94268,0.9625 0.34143,-0.19712 -1.2654,-1.57199 0.0941,-1.58993 0.57975,-0.008 0.6456,1.46377 1.16163,1.18701 0.13555,-0.0727 0.11808,-0.22386 0.054,-0.3395 -0.15654,-0.28225 -0.51197,-0.42992 -0.62958,-0.74248 -0.20711,-0.5499 0.44857,0.0354 0.55155,0.2332 0.0776,0.14917 0.12743,0.29822 0.1753,0.45863 0.71968,-0.22243 -0.0854,-0.79693 -0.35541,-1.10001 0.20149,-0.21488 0.21228,-0.34799 0.10739,-0.62138 0.55449,-0.0109 0.6664,1.13069 0.98125,1.02573 0.39793,-0.13269 -0.88536,-0.97751 -0.13137,-1.32994 l 0.28258,0.48944 0.13984,-0.0807 c -0.0354,-0.11166 -0.4089,-0.73405 -0.0845,-0.7044 0.38219,0.035 0.47808,1.25694 0.90572,1.01004 0.27235,-0.15724 -0.53094,-1.01181 -0.58385,-1.28174 -0.2195,-1.11974 -0.4907,-2.21149 -1.06717,-3.20625 -0.29557,-0.51011 -0.69225,-0.94776 -1.33648,-0.70009 -0.96524,0.37101 -1.58716,1.37476 -1.26288,2.38729 0.0611,0.1908 0.67757,1.18652 0.18757,1.20427 -0.49257,0.0179 -0.99768,-0.95843 -1.04023,-1.36412 -0.0516,-0.4921 0.29756,-0.59962 0.50385,-0.96056 0.23058,-0.40348 -0.0908,-1.13029 -0.40677,-1.41651 -0.56772,-0.51422 -1.20763,0.86401 -1.85792,0.58219 -0.47913,-0.20769 -0.62305,-0.93914 -0.38242,-1.34993 0.18495,0.32034 0.47103,1.04724 0.92081,1.04521 0.26287,-0.001 0.28385,-0.31703 0.46003,-0.44414 0.64675,-0.46662 1.40281,-0.6125 1.7073,0.2264 l 0.38998,-0.13192 c -0.17583,-0.29052 -0.49282,-0.54437 -0.60793,-0.86099 -0.4791,-1.31795 -0.27713,-3.27693 -1.71043,-4.13632 -1.32203,-0.79275 -3.79546,1.03728 -3.0405,2.49752 l -0.0699,0.0404 c -0.12957,-0.14481 -0.25858,-0.29705 -0.41961,-0.40868 -0.89561,-0.62097 -1.47424,0.89133 -2.19973,1.0391 -0.52021,0.10594 -1.02436,0.0573 -1.54485,0.23083 -2.32441,0.77519 -5.97881,3.23736 -4.49738,6.09731 l -0.0699,0.0404 c -0.30533,-0.52519 -0.82354,-1.51167 -1.40043,-1.76518 -0.80458,-0.35364 -2.50459,0.73376 -2.50442,1.59973 6e-5,0.57432 0.46084,1.14555 0.73674,1.62164 0.76285,1.31641 1.70152,2.69569 2.69103,3.8536 l -0.0699,0.0404 c -1.14357,-0.75768 -2.45675,-1.18779 -3.56261,-2.0452 -0.80395,-0.62337 -1.47172,-1.80194 -2.48448,-2.07792 -1.00946,-0.27514 -2.75108,0.40514 -3.13399,1.44521 -0.22595,0.61367 -0.009,1.49244 0.17547,2.09711 l -0.0699,0.0404 c -0.39809,-0.70293 -0.70104,-1.52959 -1.64984,-1.56515 -1.22221,-0.0459 -3.07915,1.3766 -2.37104,2.67462 l -0.0699,0.0404 c -0.86037,-0.87062 -1.42684,-0.35668 -2.22164,0.35038 -0.44584,-0.40486 -0.85001,-0.39358 -1.33846,-0.0576 -0.97524,0.67081 -1.56736,1.77639 -2.64881,2.35561 -0.92061,0.49308 -2.60798,0.46766 -3.15434,1.47357 -0.70345,1.29512 1.1828,3.33621 2.42597,3.23951 m 28.0818,-15.46721 0.25303,0.59974 0.27969,-0.16148 -0.32295,-0.55937 0.0699,-0.0404 0.67835,1.65938 c -1.1479,-0.0382 -2.52886,0.10021 -3.60914,-0.3402 -0.76259,-0.31081 -0.9541,-1.31959 -1.87584,-1.24771 0.34868,-0.37864 1.13952,0.01 1.5628,0.12324 1.06123,0.28436 1.96605,0.54213 2.96414,-0.0332 m -16.55846,7.97514 c 0.62904,0.2962 0.6946,0.61903 1.00061,1.19314 0.0514,0.0964 0.21062,0.33703 0.34769,0.20708 0.21604,-0.20486 -0.44982,-0.71404 -0.46844,-0.94491 -0.0216,-0.26858 0.57393,-0.52783 0.7716,-0.66295 l 0.0404,0.0699 -0.54856,0.50317 1.49366,2.5871 -0.0699,0.0404 c -1.27069,-0.71533 -2.53036,0.89547 -2.21258,2.11649 0.0623,0.2397 0.6588,1.19083 0.28585,1.33399 -0.51453,0.19749 -1.07912,-1.026 -1.16033,-1.38708 -0.12235,-0.54375 0.32013,-0.60268 0.509,-1.01705 0.18142,-0.39804 -0.064,-1.01205 -0.35693,-1.30545 -0.70281,-0.70397 -1.50174,1.35042 -2.19839,0.23954 -0.072,-0.11462 -0.12799,-0.23945 -0.16976,-0.368 -0.0626,-0.19277 -0.0876,-0.38953 -0.10903,-0.58979 l 0.13984,-0.0807 0.93641,1.13748 c 0.44015,-0.35328 0.98308,-1.11552 1.67301,-1.05619 0.47528,0.0409 0.38847,0.69835 0.93863,0.57389 -0.54854,-0.85727 -0.88408,-1.50417 -0.84273,-2.59 m 9.88346,-4.68071 c 0.84473,0.89535 1.43318,1.47018 1.50449,2.76731 l -0.0699,0.0404 c -0.43029,-0.74651 -1.32782,-1.9669 -1.43456,-2.80768 m 1.12455,0.65595 c 1.1046,0.0658 2.76472,-0.56771 3.77991,-0.12151 0.43993,0.19341 1.34439,1.84317 0.53485,2.03525 -0.53367,0.12669 -0.7503,-1.48332 -1.0317,-1.75418 -0.68649,-0.66068 -2.19878,0.39871 -2.67752,0.88926 -0.26402,-0.30728 -0.6346,-0.62007 -0.60554,-1.04882 m -17.75852,15.10078 -0.49235,-0.36835 c 0.35828,-0.25048 0.54701,-0.0241 0.49235,0.36835 m 18.51415,-7.33292 0.25303,0.59974 0.27969,-0.16147 z"
       id="path7186" /><text
       xml:space="preserve"
       style="font-size:12.6932px;line-height:20.3092px;font-family:'Comic Sans MS';-inkscape-font-specification:'Comic Sans MS';letter-spacing:0px;stroke-width:0.264583"
       x="55.419895"
       y="247.16241"
       id="text7236"><tspan
         sodipodi:role="line"
         id="tspan7234"
         style="font-style:normal;font-variant:normal;font-weight:normal;font-stretch:normal;font-size:12.6932px;font-family:'Titillium Web';-inkscape-font-specification:'Titillium Web';stroke-width:0.264583"
         x="55.419895"
         y="247.16241">Package Loss</tspan></text><g
       id="g7262"
       transform="matrix(0.40307959,0,0,0.40307959,57.11384,140.22844)"><path
         class="st0"
         d="m 147.94505,204.69758 c 0.76464,-3.62743 2.78077,-5.27843 6.40556,-5.27843 h 6.44789 c 3.02155,0 5.03767,2.61937 4.43177,5.43983 l -1.53193,7.25223 h -12.69207 l -0.32279,1.4896 c -0.32279,1.41023 0.36248,2.33627 2.17488,2.33627 h 9.22602 l -0.88636,4.23069 h -10.95904 c -3.02154,0 -5.03766,-2.61937 -4.43177,-5.43983 z m 11.9671,3.38402 0.4445,-2.0955 c 0.2831,-1.41022 -0.36248,-2.33627 -2.17488,-2.33627 h -2.82045 c -1.8124,0 -2.65907,0.52388 -3.06123,2.33627 l -0.4445,2.0955 z"
         id="path7238"
         style="stroke-width:0.264583" /><path
         class="st0"
         d="m 147.40794,192.25952 h -4.63285 l -1.53194,7.25223 h -7.61471 c -3.62744,0 -5.64091,1.651 -6.40556,5.27844 l -2.13519,10.033 c -0.60325,2.82046 1.41023,5.43983 4.43177,5.43983 h 1.43934 1.82298 8.69949 l 0.88636,-4.17512 h -0.005 z m -8.94556,20.42583 c -0.0132,0.0609 -0.0291,0.11642 -0.0423,0.17728 l -0.67205,3.16441 h -3.17235 c -0.0608,0 -0.11906,0.005 -0.18256,0.005 h -2.2569 c -1.81239,0 -2.45798,-0.92604 -2.17487,-2.33627 l 1.61131,-7.61471 c 0.40217,-1.81239 1.24883,-2.33627 3.06123,-2.33627 h 5.72029 z"
         id="path7240"
         style="stroke-width:0.264583" /><path
         class="st1"
         d="m 107.64107,231.99994 h -7.88194 c -0.354542,0 -0.624417,-0.33073 -0.547688,-0.67734 l 9.170458,-43.37314 c 0.0529,-0.24606 0.26988,-0.42069 0.52388,-0.42069 h 7.88193 c 0.35454,0 0.62442,0.33073 0.54769,0.67733 l -9.17046,43.37315 c -0.0529,0.24606 -0.26987,0.42069 -0.52387,0.42069 z"
         id="path7242"
         style="stroke-width:0.264583" /><path
         class="st1"
         d="M 97.666276,220.16777 H 93.94888 c -0.354542,0 -0.624417,-0.33337 -0.547688,-0.67998 l 6.678088,-31.50658 c 0.0556,-0.24606 0.33337,-0.45244 0.58737,-0.45244 h 3.7174 c 0.35454,0 0.62441,0.36513 0.54768,0.71173 l -6.741579,31.50658 c -0.05292,0.24871 -0.269875,0.42069 -0.523875,0.42069 z"
         id="path7244"
         style="stroke-width:0.264583" /><path
         class="st1"
         d="m 114.29269,231.99994 h -2.45798 c -0.35454,0 -0.62441,-0.33338 -0.54768,-0.67734 l 6.60929,-31.37429 c 0.0529,-0.24606 0.26987,-0.41804 0.52387,-0.41804 h 2.52148 c 0.35454,0 0.62442,0.33338 0.54769,0.67733 l -6.67279,31.3743 c -0.0556,0.24606 -0.27252,0.41804 -0.52388,0.41804 z"
         id="path7246"
         style="stroke-width:0.264583" /><path
         class="st0"
         d="m 31.703006,204.67642 c 0.764645,-3.62744 2.78077,-5.27844 6.405562,-5.27844 h 6.447896 c 3.021541,0 5.037666,2.61937 4.43177,5.43983 l -1.531937,7.25223 H 34.764235 l -0.322792,1.48961 c -0.322792,1.41022 0.362479,2.33627 2.174875,2.33627 h 9.226021 l -0.886354,4.23068 H 33.996943 c -3.021542,0 -5.037667,-2.61937 -4.431771,-5.43983 z m 11.967104,3.38402 0.4445,-2.0955 c 0.283104,-1.41023 -0.36248,-2.33627 -2.174875,-2.33627 h -2.820459 c -1.812396,0 -2.659062,0.52387 -3.061229,2.33627 l -0.4445,2.0955 z"
         id="path7248"
         style="stroke-width:0.264583" /><path
         class="st0"
         d="m 68.440401,199.41915 h 4.521729 l -4.421187,20.75127 h -4.52173 z m 1.584854,-7.65705 h 4.632854 l -1.087437,5.23875 h -4.632854 z"
         id="path7250"
         style="stroke-width:0.264583" /><path
         class="st0"
         d="m 75.094672,204.80077 c 0.785812,-3.69887 2.807229,-5.38162 6.434666,-5.38162 h 9.630833 l -0.619125,2.87602 -1.70127,1.43933 h -6.323542 c -1.812396,0 -2.661708,0.53446 -3.074458,2.3839 l -1.568979,7.35541 c -0.288396,1.43934 0.34925,2.3839 2.164291,2.3839 h 7.614708 l -0.910166,4.31535 h -9.347729 c -3.021542,0 -5.021792,-2.66964 -4.402667,-5.54831 z"
         id="path7252"
         style="stroke-width:0.264583" /><path
         class="st0"
         d="m 23.905735,199.41915 h -0.764646 c -0.0053,0 -0.0079,0 -0.01323,0 h -2.860146 c -3.585104,0 -7.6835,-0.0397 -7.6835,-0.0397 l -4.3656248,20.58987 h 0.015875 l -0.042333,0.20373 h 4.6328538 l 2.780771,-13.17625 c 0.01323,-0.0609 0.0291,-0.11641 0.04233,-0.17727 l 0.672042,-3.16706 h 3.288771 c 0.02117,0 0.04233,-0.003 0.06614,-0.003 h 1.611313 c 1.812396,0 2.457979,0.92605 2.174875,2.33627 l -2.981854,14.18167 h 4.632854 l 3.222625,-15.31144 c 0.608541,-2.82045 -1.407584,-5.43718 -4.429125,-5.43718 z"
         id="path7254"
         style="stroke-width:0.264583" /><path
         class="st0"
         d="m 58.529109,199.40327 c -3.627437,0 -5.640916,1.651 -6.405562,5.27844 l -1.116542,5.23346 h 0.0053 l -2.19075,10.33462 h 4.632854 l 2.510896,-11.84804 h -0.0079 l 0.515938,-2.43417 c 0.402167,-1.81239 1.248833,-2.33627 3.061229,-2.33627 h 3.537479 l 1.693333,-1.41023 0.60325,-2.82045 h -6.839479 z"
         id="path7256"
         style="stroke-width:0.264583" /><path
         class="st0"
         d="m -8.8708481,204.67642 c 0.7646458,-3.62744 2.7807708,-5.27844 6.4055624,-5.27844 H 3.98261 c 3.0215417,0 5.0376667,2.61937 4.4317708,5.43983 l -1.5319375,7.25223 H -5.809619 l -0.3227917,1.48961 c -0.3227916,1.41022 0.3624792,2.33627 2.174875,2.33627 H 5.268485 l -0.8837083,4.23333 H -6.5742648 c -3.0215416,0 -5.0376662,-2.61938 -4.4317712,-5.43983 z m 11.967104,3.38402 0.4445,-2.0955 c 0.2831042,-1.41023 -0.3624792,-2.33627 -2.174875,-2.33627 h -2.8204583 c -1.8123958,0 -2.6590624,0.52387 -3.0612291,2.33627 l -0.4445,2.0955 z"
         id="path7258"
         style="stroke-width:0.264583" /><path
         class="st0"
         d="m -23.108077,199.47206 c -3.627438,0 -5.640917,1.651 -6.405563,5.27844 l -2.135187,10.033 c -0.60325,2.82046 1.410229,5.43983 4.431771,5.43983 h 7.281333 l -0.08996,0.42863 c -0.362479,1.81239 -1.209146,2.33627 -3.021542,2.33627 h -9.255125 l -0.886354,4.0296 h 11.149542 c 3.627437,0 5.640916,-1.651 6.405562,-5.27843 l 3.6195,-17.16088 1.084792,-5.10646 z m -3.667125,14.18431 0.153458,-0.71437 h -0.0026 l 1.021292,-4.80748 h -0.0026 l 0.4445,-2.0955 c 0.402167,-1.81239 1.248834,-2.33627 3.061229,-2.33627 h 2.820459 c 0.02381,0 0.04233,0.003 0.06615,0.003 h 2.608791 l -2.632604,12.28725 h -5.360458 c -1.815042,0 -2.497667,-0.92605 -2.177521,-2.33628 z"
         id="path7260"
         style="stroke-width:0.264583" /></g><path
       style="fill:#cc0000;stroke:#cc0000;stroke-width:0.146318"
       d="m 139.34326,232.01906 -0.12674,-0.0731 c 0.84891,-2.14429 1.05523,-5.28315 1.17318,-7.583 0.0385,-0.7508 -0.82753,-1.44478 -1.46953,-0.84843 -0.99924,0.92796 -1.37704,2.71493 -1.9933,3.89938 -1.046,2.00981 -1.99421,4.3545 -3.39823,6.1478 -0.2979,0.38049 -0.78533,0.52534 -1.07887,0.89769 -0.47015,0.5963 -0.55315,1.90155 -0.94857,2.66162 -0.10843,0.20856 -0.33572,0.59435 -0.0994,0.80159 0.48306,0.42339 1.35342,-1.51603 1.53493,-1.83041 0.41435,0.18131 0.83469,0.32969 1.23792,0.0205 1.4036,-1.07649 2.40118,-3.98251 3.28743,-5.51753 l 0.12674,0.0731 c -0.6084,1.99314 -0.99624,4.25538 -1.02593,6.33478 -0.007,0.48225 -0.36236,1.36038 -0.18856,1.79152 0.18315,0.45447 0.74587,0.0601 1.07271,0.0962 0.49485,0.0547 0.72028,0.63967 1.21767,0.74121 0.56076,0.11441 1.32517,-0.47097 1.81435,-0.18957 0.72146,0.41462 0.89442,1.98849 1.691,2.60485 2.43032,1.88061 6.97793,0.65758 8.91322,-1.39161 l 0.12673,0.0731 c -1.30609,2.26666 0.0961,5.39359 -1.32352,7.85249 l 0.50686,0.29264 c 0.68455,-1.18567 1.42992,-1.63068 2.27374,-2.57571 0.8836,-0.98967 1.15742,-2.0401 2.71927,-1.97553 -0.64774,1.69285 1.85891,0.3753 2.10923,-0.30028 0.26653,-0.71944 -0.36848,-1.19013 -0.96041,-1.39689 -1.20043,-0.41903 -2.52344,-0.52361 -3.55641,0.30715 l -0.12673,-0.0731 c 0.23883,-0.79761 0.17696,-3.00287 1.0383,-3.36605 0.6632,-0.27956 2.40144,-0.22375 2.99231,0.18908 0.45408,0.31732 0.69732,0.87199 1.21881,1.1068 0.52448,0.23608 1.1696,0.0364 1.33235,-0.55012 0.17338,-0.62513 -0.0517,-1.44209 -0.0939,-2.08164 -0.11322,-1.72184 -0.11469,-3.83505 -0.80319,-5.43807 -0.34756,-0.80939 -1.1517,-1.70529 -2.11702,-1.5676 -2.3793,0.33932 -3.85286,4.70711 -4.50682,6.60361 -0.33456,-1.02302 -0.89717,-1.63696 -1.69561,-2.33059 1.88503,-1.05906 1.61312,-3.8229 3.15092,-5.44582 0.4981,-0.52568 1.64857,-1.06742 1.49291,-1.93702 -0.16916,-0.94486 -1.27566,-0.9805 -1.88042,-0.48232 -1.19572,0.98507 -2.11494,2.26115 -2.70844,3.67306 -0.4946,-1.12972 -0.85796,-2.69601 -0.95062,-3.92791 -0.0534,-0.70846 8e-4,-1.82069 -0.73652,-2.22011 -1.48175,-0.80268 -1.44597,1.61339 -1.69515,2.33676 -1.00775,2.92538 -3.39251,5.54912 -3.58985,8.57148 -1.53136,-0.51396 -2.92204,1.25275 -4.41684,1.50481 2.2214,-3.84758 4.40709,-8.29467 5.86323,-12.49648 0.28953,-0.8354 2.00483,-4.2304 0.13075,-4.28446 -1.35062,-0.0389 -1.3823,1.83177 -1.68549,2.711 -1.01526,2.94279 -2.293,5.89626 -3.84852,8.59109 m -16.03018,-7.05863 c -0.57087,1.87034 -0.64924,3.99126 -1.3596,5.80421 -0.16541,0.42218 -1.03932,1.48889 -0.38585,1.86618 0.5984,0.34548 1.13032,-1.1289 1.41083,-1.44336 1.69392,-1.89996 1.86045,-4.0808 2.38692,-6.56272 2.13087,0.4926 2.11525,-1.07991 0.37105,-1.81322 l 1.62525,-6.32665 0.43367,0.41938 2.33968,0.33709 c -0.85565,1.48204 -2.74642,4.99813 0.0129,5.24503 -0.77817,1.37394 -0.99773,2.91538 -1.42844,4.41286 -0.16296,0.56652 -0.60937,1.17263 -0.67342,1.74423 -0.1288,1.14936 0.20346,2.4541 0.0819,3.65868 -0.0875,0.86674 -0.94489,2.88237 -0.41672,3.47638 0.33617,-0.58226 0.64537,-1.40868 1.16531,-1.8463 0.35313,-0.29742 0.81128,-0.35577 1.12313,-0.72093 0.8412,-0.98558 1.27411,-2.21821 2.83129,-1.91084 -0.93922,1.50004 1.73322,0.29714 1.9973,-0.36542 0.2938,-0.73682 -0.37448,-1.20493 -0.97447,-1.40619 -1.24289,-0.41719 -2.4521,-0.45083 -3.55713,0.30842 0.0301,-0.77822 0.13411,-2.92166 0.88175,-3.34509 1.81356,-1.02719 2.91521,0.53946 4.23807,1.20675 0.55064,0.27766 1.21308,0.11676 1.36263,-0.53938 0.13562,-0.59512 -0.0731,-1.31352 -0.10347,-1.9181 -0.0921,-1.82978 -0.0857,-4.12261 -0.88095,-5.80497 -1.01124,-2.13916 -2.7902,-1.26226 -3.92932,0.15555 -0.43379,0.53986 -0.83772,1.08177 -1.18575,1.68075 0.18355,-0.91878 0.58999,-1.8031 1.22136,-2.50495 0.44678,-0.49671 1.31958,-0.98862 1.43686,-1.69484 0.12836,-0.77288 -0.6498,-1.02867 -1.24005,-1.18292 -1.37384,-0.35897 -2.75501,-0.69256 -4.133,-1.03522 -0.54922,-0.13656 -1.24983,-0.42613 -1.80886,-0.20179 -0.63431,0.25454 -0.7243,1.0831 -0.83699,1.66623 -0.30194,1.56243 -0.52439,3.1478 -0.96518,4.68031 -0.20881,0.72589 -0.49308,1.62297 -1.21415,1.99568 -0.59626,0.30807 -1.41463,0.24124 -1.89532,0.7703 -1.23852,1.36325 1.43412,1.35663 2.06868,1.19487 m 33.39296,8.29745 c 0.65259,2.43865 0.25974,4.33412 -2.61413,4.23516 0.33932,-1.41384 1.34623,-3.44287 2.61413,-4.23516 M 133.95075,220.2891 c 1.09168,2.35881 0.0445,4.19745 -2.54096,4.10844 0.39097,-1.31077 1.34978,-3.36403 2.54096,-4.10844 m 15.25272,14.55057 -3.13393,-1.3025 c 0.31632,-0.54788 0.99725,-2.36408 1.68449,-2.44852 0.8103,-0.0995 1.39332,3.13008 1.44944,3.75102 m -14.48859,-10.89928 -0.0392,0.65319 -0.45331,-0.0928 0.49252,-0.5604 m 22.60886,13.22217 0.034,0.52647 -0.4533,-0.0927 0.41932,-0.43375 m -8.69119,-0.45611 -0.3658,0.63358 0.12673,0.0731 0.49253,-0.56041 c 3.48538,2.69452 -3.10094,5.06344 -5.32964,3.67111 -1.73813,-1.08578 -0.51679,-2.56353 0.37838,-3.65751 0.31564,-0.38579 0.48634,-1.02117 0.94741,-1.26436 0.74612,-0.3939 3.02096,0.72417 3.75042,1.10444 m -4.40633,-0.85445 -0.58527,1.01371 -0.12673,-0.0731 z"
       id="path7232" /><text
       xml:space="preserve"
       style="font-size:12.6932px;line-height:20.3092px;font-family:'Comic Sans MS';-inkscape-font-specification:'Comic Sans MS';letter-spacing:0px;stroke-width:0.264583"
       x="55.419895"
       y="284.20404"
       id="text7300"><tspan
         sodipodi:role="line"
         id="tspan7298"
         style="font-style:normal;font-variant:normal;font-weight:normal;font-stretch:normal;font-size:12.6932px;font-family:'Titillium Web';-inkscape-font-specification:'Titillium Web';stroke-width:0.264583"
         x="55.419895"
         y="284.20404">Package Loss</tspan></text><path
       class="st0"
       d="m 116.74748,259.77955 c 0.30821,-1.46215 1.12087,-2.12763 2.58195,-2.12763 h 2.59901 c 1.21793,0 2.03059,1.05581 1.78636,2.19268 l -0.61749,2.92323 h -5.11592 l -0.13011,0.60043 c -0.13011,0.56843 0.14611,0.9417 0.87665,0.9417 h 3.71883 l -0.35728,1.7053 h -4.41737 c -1.21792,0 -2.03058,-1.05581 -1.78635,-2.19268 z m 4.8237,1.36403 0.17916,-0.84466 c 0.11412,-0.56843 -0.1461,-0.9417 -0.87665,-0.9417 h -1.13686 c -0.73055,0 -1.07182,0.21117 -1.23392,0.9417 l -0.17917,0.84466 z"
       id="path7302"
       style="stroke-width:0.106648" /><path
       class="st0"
       d="m 116.53098,254.76602 h -1.86741 l -0.61749,2.92322 h -3.06934 c -1.46215,0 -2.27374,0.66549 -2.58195,2.12764 l -0.86065,4.04409 c -0.24316,1.13687 0.56843,2.19269 1.78635,2.19269 h 0.58017 0.73481 3.50659 l 0.35727,-1.68291 h -0.002 z m -3.60578,8.23323 c -0.005,0.0245 -0.0117,0.0469 -0.017,0.0715 l -0.27089,1.27551 h -1.2787 c -0.0245,0 -0.048,0.002 -0.0736,0.002 h -0.90972 c -0.73054,0 -0.99076,-0.37327 -0.87664,-0.94171 l 0.64948,-3.06933 c 0.16211,-0.73054 0.50338,-0.9417 1.23392,-0.9417 h 2.30574 z"
       id="path7304"
       style="stroke-width:0.106648" /><path
       class="st1"
       d="m 100.50176,270.78457 h -3.177051 c -0.142908,0 -0.25169,-0.13331 -0.220762,-0.27302 l 3.696423,-17.48283 c 0.0213,-0.0992 0.10878,-0.16957 0.21117,-0.16957 h 3.17704 c 0.14291,0 0.25169,0.13331 0.22076,0.27302 l -3.69642,17.48283 c -0.0213,0.0992 -0.10878,0.16957 -0.21116,0.16957 z"
       id="path7306"
       style="stroke-width:0.106648" /><path
       class="st1"
       d="m 96.481122,266.01526 h -1.498406 c -0.142909,0 -0.25169,-0.13437 -0.220762,-0.27408 l 2.691801,-12.69966 c 0.02241,-0.0992 0.134375,-0.18237 0.236757,-0.18237 h 1.498408 c 0.142908,0 0.251687,0.14718 0.220759,0.28688 l -2.717393,12.69966 c -0.02133,0.10025 -0.108781,0.16957 -0.211164,0.16957 z"
       id="path7308"
       style="stroke-width:0.106648" /><path
       class="st1"
       d="m 103.18289,270.78457 h -0.99076 c -0.14291,0 -0.25169,-0.13438 -0.22076,-0.27302 l 2.66407,-12.64634 c 0.0213,-0.0992 0.10878,-0.1685 0.21116,-0.1685 h 1.01636 c 0.14291,0 0.25169,0.13438 0.22076,0.27302 l -2.68966,12.64634 c -0.0224,0.0992 -0.10985,0.1685 -0.21117,0.1685 z"
       id="path7310"
       style="stroke-width:0.106648" /><path
       class="st0"
       d="m 69.892675,259.77102 c 0.308212,-1.46215 1.120871,-2.12763 2.581951,-2.12763 h 2.599015 c 1.217922,0 2.030581,1.05581 1.786356,2.19268 l -0.617492,2.92323 h -5.115911 l -0.130111,0.60043 c -0.130111,0.56843 0.146108,0.9417 0.876647,0.9417 h 3.718821 l -0.357271,1.7053 h -4.417366 c -1.217922,0 -2.030581,-1.05581 -1.786357,-2.19268 z m 4.823695,1.36403 0.179169,-0.84466 c 0.114113,-0.56843 -0.146108,-0.9417 -0.876648,-0.9417 h -1.136869 c -0.73054,0 -1.071814,0.21116 -1.233919,0.9417 l -0.179169,0.84466 z"
       id="path7312"
       style="stroke-width:0.106648" /><path
       class="st0"
       d="m 84.700769,257.65192 h 1.822616 l -1.78209,8.36441 h -1.822617 z m 0.638822,-3.0864 H 87.207 l -0.438324,2.11163 h -1.867409 z"
       id="path7314"
       style="stroke-width:0.106648" /><path
       class="st0"
       d="m 87.38297,259.82114 c 0.316744,-1.49094 1.131536,-2.16922 2.593682,-2.16922 h 3.881992 l -0.249556,1.15926 -0.685748,0.58017 h -2.54889 c -0.73054,0 -1.07288,0.21543 -1.239252,0.9609 l -0.632423,2.96482 c -0.116246,0.58016 0.140776,0.9609 0.872382,0.9609 h 3.069333 l -0.366869,1.73943 h -3.767879 c -1.217922,0 -2.024182,-1.07608 -1.774625,-2.23641 z"
       id="path7316"
       style="stroke-width:0.106648" /><path
       class="st0"
       d="m 66.749754,257.65192 h -0.308213 c -0.0021,0 -0.0032,0 -0.0053,0 h -1.152867 c -1.445082,0 -3.097062,-0.016 -3.097062,-0.016 l -1.759694,8.29935 h 0.0064 l -0.01706,0.0821 h 1.867409 l 1.120872,-5.31107 c 0.0053,-0.0246 0.01173,-0.0469 0.01706,-0.0715 l 0.270886,-1.27658 h 1.325637 c 0.0085,0 0.01706,-0.001 0.02666,-0.001 h 0.649488 c 0.730539,0 0.990761,0.37328 0.876647,0.94171 l -1.201924,5.71634 h 1.867409 l 1.298974,-6.17173 c 0.245291,-1.13687 -0.567368,-2.19162 -1.78529,-2.19162 z"
       id="path7318"
       style="stroke-width:0.106648" /><path
       class="st0"
       d="m 80.705729,257.64552 c -1.462146,0 -2.273738,0.66548 -2.581951,2.12763 l -0.450055,2.1095 h 0.0021 l -0.883047,4.16568 h 1.867409 l 1.012091,-4.77571 h -0.0032 l 0.207964,-0.98116 c 0.162105,-0.73054 0.503379,-0.94171 1.233919,-0.94171 h 1.425885 l 0.682548,-0.56843 0.243158,-1.13687 h -2.756854 z"
       id="path7320"
       style="stroke-width:0.106648" /><path
       class="st0"
       d="m 53.538182,259.77102 c 0.308213,-1.46215 1.120872,-2.12763 2.581952,-2.12763 h 2.599015 c 1.217922,0 2.03058,1.05581 1.786356,2.19268 l -0.617493,2.92323 h -5.115911 l -0.130111,0.60043 c -0.13011,0.56843 0.146108,0.9417 0.876648,0.9417 h 3.718821 l -0.356205,1.70637 h -4.417366 c -1.217922,0 -2.03058,-1.05582 -1.786356,-2.19269 z m 4.823696,1.36403 0.179168,-0.84466 c 0.114114,-0.56843 -0.146108,-0.9417 -0.876647,-0.9417 H 56.52753 c -0.73054,0 -1.071814,0.21116 -1.233919,0.9417 l -0.179169,0.84466 z"
       id="path7322"
       style="stroke-width:0.106648" /><path
       class="st0"
       d="m 47.799446,257.67325 c -1.462147,0 -2.273739,0.66548 -2.581952,2.12763 l -0.860651,4.0441 c -0.243157,1.13686 0.568435,2.19268 1.786357,2.19268 h 2.934957 l -0.03626,0.17277 c -0.146108,0.73054 -0.487382,0.9417 -1.217922,0.9417 h -3.730553 l -0.357272,1.62425 h 4.494154 c 1.462145,0 2.273738,-0.66548 2.581951,-2.12762 l 1.458946,-6.9172 0.437258,-2.05831 z m -1.478144,5.7174 0.06186,-0.28795 h -10e-4 l 0.411662,-1.93779 h -10e-4 l 0.179169,-0.84466 c 0.162105,-0.73053 0.50338,-0.9417 1.233919,-0.9417 h 1.13687 c 0.0096,0 0.01706,10e-4 0.02666,10e-4 h 1.051551 l -1.061149,4.95274 h -2.160691 c -0.731607,0 -1.006759,-0.37327 -0.877715,-0.94171 z"
       id="path7324"
       style="stroke-width:0.106648" /><path
       style="opacity:1;fill:#cc0000;stroke:none;stroke-width:0.13743"
       d="m 119.73795,270.92995 0.13275,0.0356 c 0.37597,-1.05882 0.88846,-1.64584 2.04836,-1.80371 0.37969,-0.0518 1.02308,-0.15412 1.19484,0.30494 0.28304,0.7565 -0.48185,2.03935 -0.73051,2.74117 l 0.13275,0.0356 c 0.43581,-0.80633 0.55932,-1.78768 1.0629,-2.55863 0.31522,-0.48252 1.05323,-0.56349 1.26323,-1.09255 0.70118,-1.7666 1.09389,-3.82186 1.82612,-5.62253 0.36807,-0.90516 0.79285,-2.78195 1.89039,-3.08572 0.96112,-0.26605 0.50632,1.71012 0.39663,2.13346 0.7484,-0.61358 2.42032,-2.48245 2.43172,-3.4723 0.01,-0.85488 -0.72235,-1.16886 -0.38323,-2.09677 0.42482,-1.16239 1.7787,-1.90479 2.06712,-3.00295 0.14854,-0.56641 -0.68656,-2.51817 -1.23599,-2.71611 -1.05002,-0.37826 -2.24867,0.42324 -3.27953,0.56786 -1.48275,0.20803 -3.38712,0.7441 -4.44152,1.88239 -0.67385,0.72748 -0.57214,1.61083 -1.00243,2.43456 -1.95208,3.7369 -3.18559,8.76102 -3.58126,12.98153 -0.0711,0.75822 0.27129,1.51497 0.20768,2.33424 m 7.95481,-19.06797 c -0.61817,0.59817 -1.52948,0.90424 -2.38247,0.92668 l 2.38247,-0.92668 m 4.19329,2.4041 c -0.50097,0.94114 -1.17294,3.23997 -2.38503,3.06016 0.36931,-1.27264 0.85305,-2.95771 2.38503,-3.06016 m -1.80639,0.36964 c 0.0154,0.6675 -0.38453,2.1579 -1.11476,2.40064 -0.46307,0.15393 -1.15472,-0.0581 -1.65898,-0.0137 0.024,-1.41962 1.49221,-2.29139 2.77374,-2.3869 m 14.8912,6.55109 0.0356,-0.13274 0.56656,0.01 0.0356,-0.13274 c -2.61295,-0.6924 -2.64147,1.36222 -3.19105,3.4133 -0.23085,0.86153 -0.65721,1.76244 -0.79901,2.63147 -0.13627,0.83409 0.0254,1.68129 -0.15957,2.51825 -0.26959,1.21851 -0.95012,2.47275 -1.10347,3.68811 -0.0876,0.69446 0.26994,1.313 0.14572,2.03094 l 0.13274,0.0356 0.45287,-1.15915 c 2.13022,0.524 3.03981,0.78789 2.41294,3.20755 l 0.2655,0.0711 1.64378,-3.11651 0.15455,-1.95048 0.96401,-2.58726 0.42822,2.53347 0.80218,2.77596 -0.46057,1.15709 -0.24906,2.20971 0.26549,0.0711 0.53354,-1.99121 c 0.84162,0.22551 2.44605,0.40885 2.80716,1.34234 0.26097,0.67476 -0.17458,1.76287 -0.271,2.46734 0.47572,-0.61309 0.47915,-1.56572 1.02459,-2.1358 0.40119,-0.41935 1.27947,-0.19582 1.50547,-0.75304 0.2478,-0.61099 -0.28682,-1.43319 -0.0786,-2.14542 1.06081,-3.62927 3.29118,-9.01144 -0.0122,-12.0341 -1.39046,-1.27235 -2.21231,0.1233 -3.58432,-0.2016 -0.6585,-0.15596 -0.66223,-1.1796 -1.22568,-1.51507 -0.83831,-0.49909 -2.10629,-0.18741 -3.04196,-0.30778 m -15.26477,9.7108 0.13275,0.0356 0.25852,-1.49579 c 0.66166,0.55888 0.81412,1.44586 1.44749,2.0323 0.63621,0.58906 1.61175,0.66734 2.22837,1.23293 0.82389,0.75573 0.36594,1.82816 0.1236,2.73257 l 0.13276,0.0356 0.89455,-2.26169 3.25176,-0.46882 -0.4624,1.72572 0.13274,0.0356 c 0.43655,-1.22941 1.30971,-2.4464 1.62703,-3.69012 0.11277,-0.44214 0.002,-1.11897 -0.4472,-1.34227 -0.78372,-0.38955 -1.92239,0.13141 -2.73212,0.20583 0.68039,-1.02009 0.90822,-2.31267 1.77664,-3.22319 1.15431,-1.21009 3.4678,-1.58884 3.25648,-3.82261 -0.29014,-3.07005 -3.08034,-3.57882 -5.56853,-3.69981 -0.73693,-0.0358 -1.41161,-0.24449 -2.13896,0.02 -0.92897,0.33784 -1.80339,1.18841 -2.38817,1.97061 -1.27197,1.7013 -1.77721,4.5788 -1.71091,6.65547 0.036,1.12824 0.39183,2.19037 0.1856,3.32213 m 24.09586,8.30608 0.13275,0.0356 0.87971,-2.75212 c 0.62497,0.67084 1.01271,1.55057 1.69708,2.16221 1.61787,1.44581 2.88334,1.18121 2.40344,3.77398 l 0.13275,0.0356 0.67928,-1.90905 3.3959,-0.55597 -0.18738,1.2303 0.13274,0.0356 c 0.66946,-1.7694 2.15035,-3.09018 2.61021,-4.99172 0.53306,-2.20391 -1.95018,-5.07104 1.18365,-6.51219 l -0.29409,1.62853 c 0.44868,-0.57907 1.29129,-2.31289 0.77203,-2.95992 -0.41109,-0.5122 -1.2109,-0.55073 -1.70405,-0.99563 -2.06967,-1.86716 -4.83909,-2.488 -7.40836,-0.9693 -2.28106,1.34839 -1.11463,2.98583 -1.63175,4.95611 -0.20108,0.7665 -0.64597,1.66102 -1.2025,2.23268 -0.27368,0.28122 -0.79122,0.40463 -0.95089,0.77701 -0.20378,0.47538 0.0117,1.16554 -0.0153,1.6735 -0.057,1.07217 -0.34902,2.07409 -0.62523,3.10487 m 13.30333,1.85728 0.13275,0.0356 0.29409,-1.62854 c 0.62705,0.5829 0.81763,1.45079 1.44735,2.03226 0.63404,0.58549 1.61813,0.66265 2.22478,1.23198 0.82243,0.77184 0.33555,1.95646 0.0918,2.86631 l 0.13274,0.0356 1.03691,-2.48763 3.01223,-0.4112 -0.32965,1.76128 0.13274,0.0356 c 0.43016,-1.21348 1.31442,-2.47516 1.60685,-3.69552 0.11513,-0.48007 -0.0582,-1.14515 -0.54351,-1.35613 -0.7708,-0.3353 -1.8269,0.15258 -2.61563,0.22509 0.65304,-1.02315 0.89483,-2.3413 1.77001,-3.22496 1.18442,-1.19562 3.44463,-1.59961 3.22899,-3.82997 -0.29787,-3.07944 -3.02479,-3.561 -5.53437,-3.69077 -0.81548,-0.0422 -1.4759,-0.24992 -2.28067,0.0635 -0.92535,0.36047 -1.77845,1.23766 -2.33278,2.04638 -1.19743,1.74702 -1.69869,4.45727 -1.62515,6.53617 0.041,1.15689 0.36036,2.30301 0.15056,3.45502 m -27.94926,-21.00541 -0.0356,0.13275 c -1.09516,0.22583 -1.83506,-0.0703 -2.61939,-0.84414 0.8978,-0.14505 1.96731,0.11992 2.65496,0.71139 m 37.43474,10.03061 -0.0356,0.13275 c -1.11486,0.17405 -1.81469,-0.0502 -2.61937,-0.84414 0.8978,-0.14505 1.9673,0.11993 2.65494,0.71139 m -28.31074,-7.44356 0.35313,0.80601 c -0.40841,-0.18555 -0.62427,-0.39096 -0.35313,-0.80601 m 4.90211,1.88263 c 0.58396,0.93701 1.00828,1.96484 0.88158,3.08178 l -0.13275,-0.0356 c -0.30533,-0.87558 -1.08099,-2.11879 -0.74883,-3.04622 m -9.77121,-1.76452 -1.03152,3.84968 -0.13275,-0.0356 1.16427,-3.81411 m -20.92202,-4.75236 -1.23796,6.21308 -0.13274,-0.0356 c 0.27076,-1.97739 -0.0147,-4.56507 1.3707,-6.17751 m 5.27433,1.55553 c -0.25911,0.66828 -0.99335,1.70168 -1.66666,1.97215 0.30691,-0.97589 0.42666,-2.2613 1.66666,-1.97215 m 4.24791,1.13822 -1.33955,2.34436 -0.13275,-0.0356 1.20681,-2.37993 0.26549,0.0711 m 30.47726,9.44686 c -1.569,-1.21774 0.30352,-1.75505 0,0 m 6.95749,0.58375 -1.33955,2.34435 -0.13275,-0.0356 1.20681,-2.37992 0.26549,0.0711 m -4.80052,1.9861 c -0.95058,-0.79906 -2.33261,-2.25098 -1.60692,-3.56069 1.31897,0.8632 2.02388,1.9998 1.60692,3.56069 m -7.15626,-4.6208 -0.48845,1.29191 0.22295,-1.36305 0.2655,0.0711 m -8.33705,-1.80707 c 1.04345,1.48312 0.48412,2.97215 0.0565,4.56804 l -0.13274,-0.0356 c -0.12964,-1.19359 -0.67925,-3.50448 0.0762,-4.53247 m -0.56656,-0.01 0.18956,5.45736 -0.52687,2.70439 c -1.91949,-1.73309 -1.15464,-6.31438 0.0718,-8.23289 l 0.26549,0.0711 m -1.03594,0.14925 -1.66921,4.10564 -0.13275,-0.0356 c 0.32735,-1.22167 0.6591,-3.363 1.80196,-4.07007 m -20.51422,-5.2123 c -0.46351,1.59722 -1.04266,3.50607 -2.01538,4.86654 -0.53342,-1.48191 0.88934,-3.93841 2.01538,-4.86654 m 10.31617,5.04065 c -0.24771,0.92446 -0.53619,2.47894 -1.21826,3.18514 -0.82644,0.85574 -1.40358,-0.90422 -1.37764,-1.46197 l -0.13275,-0.0356 -0.0807,0.83205 c -0.9252,-0.86881 -0.37766,-1.9639 0.83461,-2.05282 l -0.27503,0.49542 c 0.68589,-0.66519 1.2818,-0.94416 2.24973,-0.96225 m 19.77937,5.29986 0.0686,1.868 -1.20426,0.24643 1.13568,-2.11443 m 17.65539,4.73075 c -0.2444,0.91012 -0.56963,2.48165 -1.22157,3.18425 -0.84945,0.91559 -1.43935,-1.01241 -1.33875,-1.59384 l -0.13275,-0.0356 -0.21341,0.79649 c -0.87563,-0.78197 -0.0596,-2.12127 1.02896,-1.71618 0.49137,-0.55469 1.16106,-0.6231 1.87752,-0.63515 m -15.65976,-0.49679 c -1.25329,-0.9028 -1.67522,-2.31442 -1.40303,-3.79061 1.6368,0.79527 1.82685,2.20836 1.40303,3.79061 m -24.97046,-9.82093 0.3271,0.37221 -0.77997,0.78695 0.45287,-1.15916 m 37.30201,9.99504 0.45985,0.40777 -0.6828,0.95528 -0.13275,-0.0356 0.3557,-1.32748 m 1.18519,0.88669 -0.34616,0.76091 0.13274,0.0356 0.21342,-0.79648 m -37.67421,-9.66793 -0.10671,0.39824 0.13275,0.0356 -0.026,-0.43381 m 24.9565,6.68707 0.45986,0.40776 -0.64723,0.82253 0.18737,-1.23029 m 0.78696,0.77997 c 0.31088,0.82144 0.0917,1.48078 -0.43636,2.15952 -1.06625,-0.73216 -0.58237,-1.62207 0.43636,-2.15952 m 0.61863,0.87716 c 0.12993,0.5978 0.17539,1.10197 -0.48844,1.2919 l 0.48844,-1.2919 m -31.52784,-4.46407 -0.1067,0.39824 0.13274,0.0356 -0.026,-0.43381 m 37.41967,10.26374 0.0207,0.10029 z"
       id="path7342" /><path
       style="fill:#3a5050;fill-opacity:1;stroke-width:0.264583"
       d="m 124.18258,32.298755 c -1.20491,0.326392 -1.58306,0.08216 -1.76008,-1.136834 -0.16385,-1.128234 -0.39852,-8.422336 -0.30623,-9.5178 l 0.0677,-0.802844 -1.08956,0.736284 c -1.09806,0.742023 -1.93009,0.735578 -2.39187,-0.01853 -0.20978,-0.342545 1.09093,-2.608873 2.42915,-4.232525 l 0.99681,-1.209428 0.30293,-5.552913 c 0.1666,-3.0540977 0.22743,-5.8481387 0.13516,-6.2089654 -0.23376,-0.914118 -0.0636,-2.788157 0.27091,-2.983802 0.15275,-0.08935 0.74245,-0.199056 1.31043,-0.243808 0.85209,-0.06714 1.10311,0.04172 1.43537,0.62248 0.22127,0.387239 0.40527,1.305885 0.40844,2.041706 l 0.006,1.3378617 1.01562,0.689408 c 1.86709,1.267382 2.77931,3.831984 1.72596,4.8523677 -0.4829,0.46779 -0.47022,0.476635 0.77622,0.54108 0.69693,0.03604 1.37291,0.248704 1.50217,0.472594 0.19198,0.332521 0.036,0.522621 -0.85191,1.037981 -0.59782,0.346996 -1.41561,0.900842 -1.81732,1.230763 l -0.73037,0.599856 1.54522,0.414038 c 1.35121,0.362055 1.5792,0.5145 1.81589,1.214174 0.39158,1.157543 0.5611,0.853051 0.46847,-0.841639 -0.0445,-0.814478 0.004,-1.529934 0.10797,-1.589904 0.10387,-0.05997 0.75057,-0.241311 1.4371,-0.402972 l 1.24824,-0.293936 0.0306,-1.021096 c 0.0519,-1.732142 0.23244,-1.979568 1.53979,-2.1106977 0.63168,-0.06335 1.23569,0.03578 1.34222,0.2202937 0.10653,0.184518 0.11664,1.035477 0.0225,1.891017 -0.0942,0.855546 -0.13634,1.615941 -0.0937,1.689777 0.0426,0.07384 0.31141,-0.353588 0.59729,-0.949833 0.28588,-0.596251 1.09128,-1.957407 1.78977,-3.0247997 0.84789,-1.29568 1.2681,-2.238681 1.26432,-2.837215 -0.003,-0.493078 0.13271,-0.977264 0.30182,-1.075966 0.48696,-0.284147 2.16497,-0.03603 2.38982,0.353421 0.11228,0.194472 0.0799,1.06307 -0.072,1.930226 -0.44662,2.5500737 -0.67518,6.3006317 -0.41177,6.7568857 0.3565,0.617478 -0.44491,1.647181 -1.26,1.618926 -0.55129,-0.01911 -0.5019,0.03478 0.37645,0.410711 2.17627,0.931436 3.64036,2.377435 3.21245,3.172744 -0.45514,0.845888 -3.08422,1.800352 -5.81973,2.112776 -0.39233,0.04481 -0.43774,0.167849 -0.2085,0.564913 0.31048,0.537765 0.008,0.712717 -1.71348,0.991125 -0.97535,0.157681 -1.28959,-0.16166 -1.95376,-1.985482 -0.3127,-0.858659 -0.61515,-1.573677 -0.6721,-1.588939 -0.17134,-0.04591 -0.75855,4.789269 -0.68027,5.601532 0.0872,0.904608 -0.4759,1.294912 -1.98143,1.373451 -0.65804,0.03433 -1.15388,0.199601 -1.27115,0.423711 -0.10577,0.202091 -0.68909,0.656365 -1.29629,1.009505 -0.91779,0.533814 -1.28217,0.594331 -2.16048,0.358985 -1.2239,-0.327945 -1.84376,-1.190015 -2.18989,-3.045611 -0.12116,-0.649524 -0.26739,-1.193571 -0.32497,-1.208998 -0.0575,-0.01545 -0.0894,0.968631 -0.0708,2.186797 0.0276,1.799215 0.1016,2.14799 0.3945,1.858592 0.54776,-0.541205 0.76483,0.115361 0.55697,1.684684 -0.19705,1.487795 -0.18522,1.474649 -1.69627,1.883974 z m 0.49675,-1.438153 c -0.27451,-0.0082 -0.39041,-0.351427 -0.4425,-1.310286 -0.11065,-2.036933 -0.10702,-9.663408 0.005,-11.482695 0.11237,-1.817421 0.15954,-1.877292 3.71816,-4.719939 1.56725,-1.251926 1.68385,-1.402683 1.13708,-1.4701 -0.60272,-0.07432 -1.32677,0.367289 -3.63831,2.219031 -0.6437,0.51566 -0.93332,0.632405 -1.05329,0.424601 -0.43798,-0.758596 0.18004,-7.7456207 0.7123,-8.0529207 0.42509,-0.24543 1.21258,0.27442 1.70335,1.124454 0.25477,0.441266 0.31713,1.11471 0.17103,1.846954 -0.21948,1.1000147 -0.20308,1.1533847 0.36005,1.1729067 0.48884,0.01694 0.64257,-0.129689 0.89665,-0.8552657 0.3857,-1.101447 -0.38911,-2.553691 -1.78229,-3.340591 -1.20052,-0.678087 -1.34892,-0.962758 -1.24439,-2.3872237 0.10503,-1.431387 -0.29565,-2.203644 -1.12943,-2.176785 -0.82785,0.02667 -1.10309,0.860561 -0.79262,2.401452 0.12684,0.6294907 0.0729,3.6415107 -0.11985,6.6933724 -0.34853,5.518254 -0.35581,5.555037 -1.32206,6.673209 -1.31856,1.525887 -2.31319,3.29857 -2.07869,3.704742 0.21319,0.369246 0.33005,0.332275 0.96874,-0.306471 0.23968,-0.239704 0.35039,-0.583721 0.24603,-0.76449 -0.17419,-0.30171 0.69771,-1.726416 1.25259,-2.046781 0.45026,-0.259955 0.61141,0.523364 0.5873,2.854774 -0.0465,4.497523 0.29485,10.429946 0.60437,10.503792 0.3972,0.09477 1.29721,-0.197045 1.47531,-0.478347 0.0753,-0.118935 -0.0305,-0.221231 -0.23499,-0.227408 z m 19.75131,-10.981091 c 0.42268,-0.521852 0.20179,-0.725983 -2.27313,-2.100556 -1.90581,-1.058501 -2.34865,-1.420179 -2.74605,-2.242759 -0.40515,-0.83874 -0.39329,-1.172927 0.0822,-2.307819 0.3058,-0.729892 0.65109,-1.381974 0.76732,-1.449079 0.3996,-0.23071 0.64215,0.62722 0.64868,2.29442 0.005,1.353865 0.0886,1.673597 0.43991,1.687991 0.68659,0.02813 0.77232,-0.106321 0.72212,-1.132513 -0.0689,-1.408385 0.16654,-4.5352 0.48207,-6.4021937 0.2617,-1.548476 0.24602,-1.626393 -0.34077,-1.69352 -0.54893,-0.06279 -0.6293,0.02635 -0.74722,0.828714 -0.0727,0.49449 -0.75476,1.853729 -1.51577,3.0205317 -0.761,1.166803 -1.60133,2.738332 -1.8674,3.492289 -0.59931,1.698278 -0.31577,2.095723 2.4866,3.485479 1.54701,0.767198 2.05076,1.15232 2.34207,1.790518 0.33383,0.731405 0.29576,0.868634 -0.37899,1.365923 -0.70427,0.519039 -0.70897,0.543237 -0.077,0.395869 0.87023,-0.202912 1.6207,-0.595484 1.97532,-1.033293 z m -10.98834,4.994488 c 0.1085,-2.465075 0.91673,-6.611028 1.33828,-6.864909 0.33349,-0.200851 0.45387,-0.126932 0.56816,0.348842 0.0798,0.332006 0.43502,1.507838 0.78946,2.612923 0.56796,1.770777 0.69966,2.011455 1.10963,2.027931 0.69855,0.0281 1.06718,-0.26145 0.83807,-0.658283 -0.11219,-0.194308 -0.12252,-0.7039 -0.023,-1.132425 0.15261,-0.656944 0.11806,-0.75829 -0.22033,-0.646205 -0.52572,0.174129 -0.80603,-0.351199 -1.16128,-2.176391 -0.37559,-1.929722 -0.46433,-3.687752 -0.30071,-5.957453 l 0.13121,-1.820112 -0.66271,0.02135 c -0.57415,0.01849 -0.66843,0.121062 -0.70555,0.767512 -0.0848,1.476365 -0.92189,6.116969 -1.14919,6.37055 -0.40979,0.457165 -0.69626,-0.496676 -0.6223,-2.071971 0.0762,-1.622824 0.0499,-1.682764 -0.63709,-1.451344 -0.31738,0.106911 -0.46235,0.962669 -0.52522,3.100198 -0.17158,5.833751 -0.23671,6.851305 -0.44646,6.975722 -0.1171,0.06946 -0.59275,0.03712 -1.05699,-0.07187 -0.83458,-0.195929 -0.84396,-0.191368 -0.83448,0.405403 0.0204,1.280632 -0.51247,2.585313 -1.22351,2.995833 -0.61903,0.3574 -0.74806,0.329415 -1.05783,-0.22943 -0.19402,-0.350068 -0.37968,-1.088332 -0.41255,-1.640599 -0.0505,-0.848134 0.13249,-1.216338 1.17775,-2.370159 1.71287,-1.890769 2.37965,-3.432155 2.26845,-5.243971 -0.10445,-1.701891 -0.33288,-2.235492 -1.00623,-2.350471 -0.375,-0.06403 -0.43016,0.0574 -0.27435,0.603979 0.3329,1.167834 0.0724,3.101994 -0.59947,4.450654 -1.2827,2.574879 -1.89734,1.865679 -1.28452,-1.482128 0.23352,-1.275729 0.59765,-2.66309 0.80919,-3.083022 0.29696,-0.58953 0.28675,-0.789721 -0.0448,-0.878554 -0.79341,-0.212591 -1.18527,0.312275 -1.62844,2.181206 -0.63165,2.66375 -0.84794,6.681811 -0.4534,8.42291 0.29961,1.322206 0.42022,1.548209 1.03827,1.945545 0.6545,0.420751 1.72296,0.443317 2.4029,0.05076 0.16324,-0.09425 0.52784,-0.648453 0.8102,-1.23156 0.67327,-1.390316 1.16999,-1.684999 1.41161,-0.837413 0.13436,0.471352 0.30129,0.603664 0.64311,0.509802 0.86482,-0.237496 0.93968,-0.357442 0.99405,-1.592843 z m 8.92396,-5.11859 c 0.1116,-0.212931 0.0443,-0.515646 -0.14966,-0.672702 -0.26467,-0.214389 -0.65185,-0.107404 -1.5534,0.429228 -0.66048,0.393148 -1.35853,0.911889 -1.55122,1.152788 -0.2947,0.368422 -0.15431,0.401449 0.88383,0.207916 1.43254,-0.26706 2.0864,-0.575237 2.37045,-1.11723 z M 128.96604,25.5647 c 0.30243,-1.374698 0.20922,-1.58028 -0.52444,-1.1567 -0.39608,0.228675 -0.55468,0.59191 -0.52624,1.205194 0.081,1.746249 0.66174,1.719445 1.05068,-0.04849 z m 10.96768,-6.472811 c -0.20361,0.02931 -0.39655,0.151551 -0.42874,0.271643 -0.0322,0.120091 0.13447,0.0961 0.37023,-0.05329 0.26058,-0.165108 0.28353,-0.250749 0.0585,-0.21836 z m 0.39037,-1.009601 c -0.18482,-0.103336 -0.70502,-0.351727 -1.15598,-0.551985 -0.45098,-0.200256 -1.13397,-0.768304 -1.51777,-1.262322 l -0.6978,-0.89822 0.34073,2.035734 c 0.18741,1.119654 0.36414,2.07624 0.39272,2.125754 0.0286,0.04951 0.66634,-0.215072 1.41724,-0.587976 0.75089,-0.372895 1.40839,-0.6769 1.46109,-0.675555 0.0527,0.0013 -0.0555,-0.08206 -0.24023,-0.18543 z m -9.01902,3.724256 c 0.049,-0.879826 0.004,-1.433557 -0.0994,-1.230519 -0.10364,0.20304 -0.43362,0.82821 -0.73328,1.389271 -0.47946,0.89768 -0.48125,1.053937 -0.0149,1.302029 0.29144,0.155057 0.58136,0.249743 0.64425,0.210414 0.0629,-0.0393 0.15442,-0.791369 0.20339,-1.671195 z m 8.80521,-7.648881 c -0.0237,-0.466504 -0.0642,-0.419528 -0.18907,0.21939 -0.0874,0.44715 -0.0895,0.929548 -0.005,1.072001 0.16134,0.271446 0.24495,-0.284557 0.19376,-1.291388 z m -14.81172,6.560925 c 0.10015,-1.152663 0.36442,-2.776214 0.58727,-3.607889 l 0.40517,-1.512134 -0.61237,0.634194 c -0.7388,0.765113 -0.64626,0.346642 -0.73418,3.320244 -0.13138,4.443664 0.0247,4.957304 0.35411,1.165585 z m 3.38015,-2.12874 c 0.13462,-1.13403 -0.0192,-0.893931 -0.37767,0.58968 -0.17086,0.707044 -0.17685,1.04105 -0.0133,0.742227 0.16354,-0.298819 0.33947,-0.898176 0.39097,-1.331907 z m -1.69117,-6.682666 0.58871,-0.509536 -0.98245,-0.04015 c -1.21032,-0.04946 -1.34,-0.245464 -0.76058,-1.149558 0.65715,-1.0253637 0.69173,-1.6357537 0.13635,-2.4072257 l -0.49104,-0.682108 -0.20921,2.059367 c -0.11507,1.1326507 -0.21897,2.5960387 -0.23089,3.2519747 l -0.0217,1.19261 0.69103,-0.602915 c 0.38006,-0.331595 0.95594,-0.832204 1.27973,-1.112451 z m 18.6272,6.58109 c -0.74828,-0.200495 -1.1839,-0.506043 -1.49323,-1.04735 -0.552,-0.966089 -1.16342,-3.647335 -1.0168,-4.459455 0.0613,-0.339323 0.19389,-1.558207 0.2947,-2.708628 0.22417,-2.5580227 1.09114,-5.5181987 1.72299,-5.8829984 0.25708,-0.148425 1.11211,-0.131702 1.90007,0.03716 1.38837,0.2975317 1.45097,0.3458237 2.02488,1.5621747 0.75886,1.608349 0.66616,3.313663 -0.28093,5.1678277 l -0.7203,1.410151 0.81513,0.372282 c 1.02153,0.466542 1.15159,0.695339 1.04286,1.834482 -0.13629,1.427563 -0.92677,2.665993 -2.15391,3.374483 -0.88704,0.51213 -1.26691,0.572589 -2.13546,0.339863 z m 2.85703,-2.036315 c 0.33159,-0.559294 0.62237,-1.361732 0.64619,-1.783188 0.0397,-0.703054 -0.006,-0.779127 -0.5522,-0.921835 -0.5515,-0.144022 -0.59505,-0.11062 -0.58906,0.451763 0.0138,1.29311 -0.51634,2.58947 -1.22663,2.999555 -0.61904,0.357405 -0.74806,0.329415 -1.05783,-0.229425 -0.19403,-0.350068 -0.37969,-1.088332 -0.41255,-1.640599 -0.0505,-0.848134 0.1325,-1.216343 1.17775,-2.370164 1.71286,-1.890764 2.37964,-3.4321497 2.26844,-5.2439657 -0.10445,-1.701891 -0.33288,-2.235492 -1.00623,-2.350471 -0.375,-0.06403 -0.43016,0.0574 -0.27435,0.603979 0.3329,1.167834 0.0724,3.101994 -0.59946,4.4506487 -1.27111,2.551609 -1.85294,1.914637 -1.30602,-1.4297557 0.20882,-1.276899 0.5721,-2.662726 0.80727,-3.079611 0.32581,-0.577523 0.32728,-0.79511 0.006,-0.913937 -0.23175,-0.08578 -0.60001,-0.05283 -0.81836,0.07323 -0.99446,0.574155 -1.89021,7.8663927 -1.29105,10.5104827 0.30001,1.323955 0.41966,1.547838 1.04045,1.946923 1.22192,0.785498 2.3006,0.422156 3.18743,-1.073651 z m -1.40399,-1.338302 c 0.30243,-1.374698 0.20922,-1.58028 -0.52444,-1.1567 -0.39608,0.228675 -0.55469,0.591915 -0.52624,1.205194 0.081,1.746249 0.66173,1.71945 1.05068,-0.04849 z m -0.43951,-6.5522427 c 0.17286,-0.687916 0.26273,-1.220986 0.19972,-1.184606 -0.0631,0.0364 -0.256,0.628985 -0.42885,1.316896 -0.17286,0.687917 -0.26272,1.220985 -0.19971,1.184605 0.063,-0.0364 0.25599,-0.628983 0.42884,-1.316895 z"
       id="path5636" /><text
       xml:space="preserve"
       style="font-size:12.6932px;line-height:20.3092px;font-family:'Comic Sans MS';-inkscape-font-specification:'Comic Sans MS';letter-spacing:0px;stroke-width:0.264583"
       x="53.251961"
       y="48.115242"
       id="text5640"><tspan
         sodipodi:role="line"
         id="tspan5638"
         style="font-style:normal;font-variant:normal;font-weight:normal;font-stretch:normal;font-size:12.6932px;font-family:'Titillium Web';-inkscape-font-specification:'Titillium Web';stroke-width:0.264583"
         x="53.251961"
         y="48.115242">Package Loss</tspan></text><g
       id="g5666"
       transform="matrix(0.40307959,0,0,0.40307959,54.945907,-58.818731)"><path
         class="st0"
         d="m 147.94505,204.69758 c 0.76464,-3.62743 2.78077,-5.27843 6.40556,-5.27843 h 6.44789 c 3.02155,0 5.03767,2.61937 4.43177,5.43983 l -1.53193,7.25223 h -12.69207 l -0.32279,1.4896 c -0.32279,1.41023 0.36248,2.33627 2.17488,2.33627 h 9.22602 l -0.88636,4.23069 h -10.95904 c -3.02154,0 -5.03766,-2.61937 -4.43177,-5.43983 z m 11.9671,3.38402 0.4445,-2.0955 c 0.2831,-1.41022 -0.36248,-2.33627 -2.17488,-2.33627 h -2.82045 c -1.8124,0 -2.65907,0.52388 -3.06123,2.33627 l -0.4445,2.0955 z"
         id="path5642"
         style="stroke-width:0.264583" /><path
         class="st0"
         d="m 147.40794,192.25952 h -4.63285 l -1.53194,7.25223 h -7.61471 c -3.62744,0 -5.64091,1.651 -6.40556,5.27844 l -2.13519,10.033 c -0.60325,2.82046 1.41023,5.43983 4.43177,5.43983 h 1.43934 1.82298 8.69949 l 0.88636,-4.17512 h -0.005 z m -8.94556,20.42583 c -0.0132,0.0609 -0.0291,0.11642 -0.0423,0.17728 l -0.67205,3.16441 h -3.17235 c -0.0608,0 -0.11906,0.005 -0.18256,0.005 h -2.2569 c -1.81239,0 -2.45798,-0.92604 -2.17487,-2.33627 l 1.61131,-7.61471 c 0.40217,-1.81239 1.24883,-2.33627 3.06123,-2.33627 h 5.72029 z"
         id="path5644"
         style="stroke-width:0.264583" /><path
         class="st1"
         d="m 107.64107,231.99994 h -7.88194 c -0.354542,0 -0.624417,-0.33073 -0.547688,-0.67734 l 9.170458,-43.37314 c 0.0529,-0.24606 0.26988,-0.42069 0.52388,-0.42069 h 7.88193 c 0.35454,0 0.62442,0.33073 0.54769,0.67733 l -9.17046,43.37315 c -0.0529,0.24606 -0.26987,0.42069 -0.52387,0.42069 z"
         id="path5646"
         style="stroke-width:0.264583" /><path
         class="st1"
         d="M 97.666276,220.16777 H 93.94888 c -0.354542,0 -0.624417,-0.33337 -0.547688,-0.67998 l 6.678088,-31.50658 c 0.0556,-0.24606 0.33337,-0.45244 0.58737,-0.45244 h 3.7174 c 0.35454,0 0.62441,0.36513 0.54768,0.71173 l -6.741579,31.50658 c -0.05292,0.24871 -0.269875,0.42069 -0.523875,0.42069 z"
         id="path5648"
         style="stroke-width:0.264583" /><path
         class="st1"
         d="m 114.29269,231.99994 h -2.45798 c -0.35454,0 -0.62441,-0.33338 -0.54768,-0.67734 l 6.60929,-31.37429 c 0.0529,-0.24606 0.26987,-0.41804 0.52387,-0.41804 h 2.52148 c 0.35454,0 0.62442,0.33338 0.54769,0.67733 l -6.67279,31.3743 c -0.0556,0.24606 -0.27252,0.41804 -0.52388,0.41804 z"
         id="path5650"
         style="stroke-width:0.264583" /><path
         class="st0"
         d="m 31.703006,204.67642 c 0.764645,-3.62744 2.78077,-5.27844 6.405562,-5.27844 h 6.447896 c 3.021541,0 5.037666,2.61937 4.43177,5.43983 l -1.531937,7.25223 H 34.764235 l -0.322792,1.48961 c -0.322792,1.41022 0.362479,2.33627 2.174875,2.33627 h 9.226021 l -0.886354,4.23068 H 33.996943 c -3.021542,0 -5.037667,-2.61937 -4.431771,-5.43983 z m 11.967104,3.38402 0.4445,-2.0955 c 0.283104,-1.41023 -0.36248,-2.33627 -2.174875,-2.33627 h -2.820459 c -1.812396,0 -2.659062,0.52387 -3.061229,2.33627 l -0.4445,2.0955 z"
         id="path5652"
         style="stroke-width:0.264583" /><path
         class="st0"
         d="m 68.440401,199.41915 h 4.521729 l -4.421187,20.75127 h -4.52173 z m 1.584854,-7.65705 h 4.632854 l -1.087437,5.23875 h -4.632854 z"
         id="path5654"
         style="stroke-width:0.264583" /><path
         class="st0"
         d="m 75.094672,204.80077 c 0.785812,-3.69887 2.807229,-5.38162 6.434666,-5.38162 h 9.630833 l -0.619125,2.87602 -1.70127,1.43933 h -6.323542 c -1.812396,0 -2.661708,0.53446 -3.074458,2.3839 l -1.568979,7.35541 c -0.288396,1.43934 0.34925,2.3839 2.164291,2.3839 h 7.614708 l -0.910166,4.31535 h -9.347729 c -3.021542,0 -5.021792,-2.66964 -4.402667,-5.54831 z"
         id="path5656"
         style="stroke-width:0.264583" /><path
         class="st0"
         d="m 23.905735,199.41915 h -0.764646 c -0.0053,0 -0.0079,0 -0.01323,0 h -2.860146 c -3.585104,0 -7.6835,-0.0397 -7.6835,-0.0397 l -4.3656248,20.58987 h 0.015875 l -0.042333,0.20373 h 4.6328538 l 2.780771,-13.17625 c 0.01323,-0.0609 0.0291,-0.11641 0.04233,-0.17727 l 0.672042,-3.16706 h 3.288771 c 0.02117,0 0.04233,-0.003 0.06614,-0.003 h 1.611313 c 1.812396,0 2.457979,0.92605 2.174875,2.33627 l -2.981854,14.18167 h 4.632854 l 3.222625,-15.31144 c 0.608541,-2.82045 -1.407584,-5.43718 -4.429125,-5.43718 z"
         id="path5658"
         style="stroke-width:0.264583" /><path
         class="st0"
         d="m 58.529109,199.40327 c -3.627437,0 -5.640916,1.651 -6.405562,5.27844 l -1.116542,5.23346 h 0.0053 l -2.19075,10.33462 h 4.632854 l 2.510896,-11.84804 h -0.0079 l 0.515938,-2.43417 c 0.402167,-1.81239 1.248833,-2.33627 3.061229,-2.33627 h 3.537479 l 1.693333,-1.41023 0.60325,-2.82045 h -6.839479 z"
         id="path5660"
         style="stroke-width:0.264583" /><path
         class="st0"
         d="m -8.8708481,204.67642 c 0.7646458,-3.62744 2.7807708,-5.27844 6.4055624,-5.27844 H 3.98261 c 3.0215417,0 5.0376667,2.61937 4.4317708,5.43983 l -1.5319375,7.25223 H -5.809619 l -0.3227917,1.48961 c -0.3227916,1.41022 0.3624792,2.33627 2.174875,2.33627 H 5.268485 l -0.8837083,4.23333 H -6.5742648 c -3.0215416,0 -5.0376662,-2.61938 -4.4317712,-5.43983 z m 11.967104,3.38402 0.4445,-2.0955 c 0.2831042,-1.41023 -0.3624792,-2.33627 -2.174875,-2.33627 h -2.8204583 c -1.8123958,0 -2.6590624,0.52387 -3.0612291,2.33627 l -0.4445,2.0955 z"
         id="path5662"
         style="stroke-width:0.264583" /><path
         class="st0"
         d="m -23.108077,199.47206 c -3.627438,0 -5.640917,1.651 -6.405563,5.27844 l -2.135187,10.033 c -0.60325,2.82046 1.410229,5.43983 4.431771,5.43983 h 7.281333 l -0.08996,0.42863 c -0.362479,1.81239 -1.209146,2.33627 -3.021542,2.33627 h -9.255125 l -0.886354,4.0296 h 11.149542 c 3.627437,0 5.640916,-1.651 6.405562,-5.27843 l 3.6195,-17.16088 1.084792,-5.10646 z m -3.667125,14.18431 0.153458,-0.71437 h -0.0026 l 1.021292,-4.80748 h -0.0026 l 0.4445,-2.0955 c 0.402167,-1.81239 1.248834,-2.33627 3.061229,-2.33627 h 2.820459 c 0.02381,0 0.04233,0.003 0.06615,0.003 h 2.608791 l -2.632604,12.28725 h -5.360458 c -1.815042,0 -2.497667,-0.92605 -2.177521,-2.33628 z"
         id="path5664"
         style="stroke-width:0.264583" /></g></g><style
     type="text/css"
     id="style1839">
	.st0{fill:#4E6470;}
	.st1{fill:#A8D500;}
	.st2{fill:#C4CED4;}
</style></svg>
