<?xml version="1.0" encoding="UTF-8" standalone="no"?>
<!-- Created with Inkscape (http://www.inkscape.org/) -->

<svg
   width="37.494965mm"
   height="29.121166mm"
   viewBox="0 0 37.494964 29.121166"
   version="1.1"
   id="svg5"
   xml:space="preserve"
   inkscape:version="1.2.2 (732a01da63, 2022-12-09)"
   sodipodi:docname="elvis.svg"
   inkscape:export-filename="elvis.png"
   inkscape:export-xdpi="600"
   inkscape:export-ydpi="600"
   xmlns:inkscape="http://www.inkscape.org/namespaces/inkscape"
   xmlns:sodipodi="http://sodipodi.sourceforge.net/DTD/sodipodi-0.dtd"
   xmlns="http://www.w3.org/2000/svg"
   xmlns:svg="http://www.w3.org/2000/svg"><sodipodi:namedview
     id="namedview7"
     pagecolor="#ffffff"
     bordercolor="#666666"
     borderopacity="1.0"
     inkscape:showpageshadow="2"
     inkscape:pageopacity="0.0"
     inkscape:pagecheckerboard="0"
     inkscape:deskcolor="#d1d1d1"
     inkscape:document-units="mm"
     showgrid="false"
     showguides="true"
     inkscape:zoom="3.3638608"
     inkscape:cx="139.42313"
     inkscape:cy="58.266383"
     inkscape:window-width="1920"
     inkscape:window-height="1017"
     inkscape:window-x="5752"
     inkscape:window-y="-8"
     inkscape:window-maximized="1"
     inkscape:current-layer="layer1"><inkscape:grid
       type="xygrid"
       id="grid52066"
       units="mm"
       spacingx="0.1"
       spacingy="0.1"
       dotted="false"
       empspacing="5"
       originx="-94.423573"
       originy="-83.052006" /></sodipodi:namedview><defs
     id="defs2" /><g
     inkscape:label="Gegener"
     inkscape:groupmode="layer"
     id="layer1"
     transform="translate(-94.423594,-83.051998)"><g
       id="g55280"
       inkscape:label="Fuesse"
       transform="translate(5.0000144,4.9999162)"><path
         style="fill:#000000;fill-opacity:1;stroke:#000000;stroke-width:0.264583px;stroke-linecap:butt;stroke-linejoin:miter;stroke-opacity:1"
         d="m 117.2003,101 c 0,0 0.41682,5.45753 -1.6077,6 -2.02452,0.54247 -4.5,-4.5 -4.5,-4.5"
         id="path54548"
         sodipodi:nodetypes="czc"
         inkscape:label="rechter Fuss" /><path
         style="fill:#000000;fill-opacity:1;stroke:#000000;stroke-width:0.264583px;stroke-linecap:butt;stroke-linejoin:miter;stroke-opacity:1"
         d="m 99.499998,101 c 0,0 -0.416827,5.45753 1.607692,6 2.02452,0.54247 4.5,-4.5 4.5,-4.5"
         id="path54546"
         sodipodi:nodetypes="czc"
         inkscape:label="linker Fuss" /></g><path
       style="fill:#a8d500;stroke:none;stroke-width:0.265;stroke-linecap:butt;stroke-linejoin:miter;stroke-dasharray:none;stroke-opacity:1;fill-opacity:1"
       d="m 98.381364,109.1154 c -1.379057,-2.93936 -4.886249,-11.46652 -3.726355,-15.795304 3.785509,-3.785509 6.917921,-4.97643 11.179061,-5.506111 4.26114,-0.529681 7.39119,-0.529681 14.79419,0 6.08008,0.529681 7.403,1.852598 11.2903,5.506111 0,4.283987 -1.24147,13.032334 -4.00444,15.795304 -2.52869,0.67756 -5.70369,-0.92798 -5.06117,-1.83537 0.64252,-0.90739 1.47414,-2.00303 1.00111,-2.55841 -1.64363,-0.50295 -0.46604,4.39378 -10.51166,4.39378 -10.04561,0 -8.84515,-4.89993 -10.73412,-4.39378 0.0979,1.60087 1.47521,1.33364 0.88987,2.55841 -0.58535,1.22477 -2.99051,1.83537 -5.116786,1.83537 z"
       id="path51510"
       sodipodi:nodetypes="cczccczczczc"
       inkscape:label="Koerper" /><path
       id="path52175"
       style="opacity:1;fill:#efc7a6;fill-rule:evenodd;stroke-width:0.349507;paint-order:stroke markers fill;stop-color:#000000;fill-opacity:1"
       d="m 119.47172,96.38525 c -0.14089,4.12825 -1.47171,4.11467 -4.77171,5.81466 -0.67702,0.34877 -0.49191,1.80001 -1.33508,1.80001 -0.84317,0 -0.88789,-1.45124 -1.56492,-1.80001 -3.3,-1.69999 -4.51345,-2.669325 -4.54186,-5.81466 0,-2.615619 2.7341,-6.314664 6.10678,-6.314668 3.37269,-2e-6 6.10679,3.699046 6.10679,6.314668 z"
       sodipodi:nodetypes="cssscsc"
       inkscape:label="Gesicht" /><path
       id="path52120"
       style="opacity:1;fill:#000000;fill-rule:evenodd;stroke-width:0.26938;paint-order:stroke markers fill;stop-color:#000000"
       d="m 121.41668,91.650955 c 0,1.187268 0.29966,2.318337 -0.11539,3.347103 -0.41505,1.028765 -1.01563,1.955226 -1.75778,2.733278 -0.74214,0.778053 -2.36017,-0.391837 -2.62475,-0.127253 -0.26458,0.79375 -1.14658,1.182536 -1.5875,1.5875 -0.44092,0.404964 -2.91042,0.79375 -2.11667,0.529166 0.79375,-0.264584 2.55988,-1.058333 1.85209,-1.058333 -0.70779,0 -4.06343,1.346874 -5.04471,0.911747 -0.98129,-0.435131 -2.39416,-1.064775 -3.1363,-1.842827 -1.90803,-1.796732 -1.89209,-3.869948 -1.87317,-6.080381 0,-4.749073 3.6722,-8.598958 8.20209,-8.598957 4.52989,-10e-7 8.20209,3.849884 8.20209,8.598957 z"
       sodipodi:nodetypes="sscczzzsccss"
       inkscape:label="Haare" /></g></svg>
