<?xml version="1.0" encoding="UTF-8" standalone="no"?>
<!-- Created with Inkscape (http://www.inkscape.org/) -->

<svg
   width="38.771572mm"
   height="42.931881mm"
   viewBox="0 0 38.771571 42.931881"
   version="1.1"
   id="svg5"
   xml:space="preserve"
   inkscape:version="1.2.2 (732a01da63, 2022-12-09)"
   sodipodi:docname="elvis step left.svg"
   inkscape:export-filename="enemy step left.png"
   inkscape:export-xdpi="600"
   inkscape:export-ydpi="600"
   xmlns:inkscape="http://www.inkscape.org/namespaces/inkscape"
   xmlns:sodipodi="http://sodipodi.sourceforge.net/DTD/sodipodi-0.dtd"
   xmlns="http://www.w3.org/2000/svg"
   xmlns:svg="http://www.w3.org/2000/svg"><sodipodi:namedview
     id="namedview7"
     pagecolor="#ffffff"
     bordercolor="#666666"
     borderopacity="1.0"
     inkscape:showpageshadow="2"
     inkscape:pageopacity="0.0"
     inkscape:pagecheckerboard="0"
     inkscape:deskcolor="#d1d1d1"
     inkscape:document-units="mm"
     showgrid="false"
     showguides="true"
     inkscape:zoom="2.3786088"
     inkscape:cx="-3.1531036"
     inkscape:cy="45.825106"
     inkscape:window-width="1920"
     inkscape:window-height="1017"
     inkscape:window-x="3832"
     inkscape:window-y="-8"
     inkscape:window-maximized="1"
     inkscape:current-layer="layer1"><inkscape:grid
       type="xygrid"
       id="grid52066"
       units="mm"
       spacingx="0.1"
       spacingy="0.1"
       dotted="false"
       empspacing="5"
       originx="-51.647791"
       originy="-77.390198" /></sodipodi:namedview><defs
     id="defs2" /><g
     inkscape:label="Gegener"
     inkscape:groupmode="layer"
     id="layer1"
     transform="translate(-51.647816,-77.39018)"><path
       style="fill:#000000;fill-opacity:1;stroke:#000000;stroke-width:0.264583px;stroke-linecap:butt;stroke-linejoin:miter;stroke-opacity:1"
       d="m 67.849871,82.281083 c 0,0 0.792236,-4.150522 -1.232271,-4.692992 -2.02452,-0.54247 -2.261403,2.400446 -2.261403,2.400446"
       id="path54546"
       sodipodi:nodetypes="czc"
       inkscape:label="Fuss rechts" /><path
       style="fill:#4e6470;fill-opacity:1;stroke:none;stroke-width:0.1;stroke-linecap:butt;stroke-linejoin:miter;stroke-dasharray:none;stroke-opacity:1"
       d="m 64.356196,79.988537 c 0,0 -0.154724,2.009653 -1.286495,2.525078 -1.661088,0.756483 -2.073041,4.137498 -2.073041,4.137498 0,0 8.527325,-1.209516 8.382862,-1.198226 -0.07223,0.0056 -0.946353,-1.278423 -1.273251,-2.563903 -0.326897,-1.28548 -0.10657,-2.572371 -0.10657,-2.572371 z"
       id="path64905"
       sodipodi:nodetypes="cscsscc"
       inkscape:label="Bein rechts" /><path
       style="fill:#000000;fill-opacity:1;stroke:#000000;stroke-width:0.264583px;stroke-linecap:butt;stroke-linejoin:miter;stroke-opacity:1"
       d="m 77.533994,114.70432 c 0,0 0.652784,4.90695 -1.371733,5.44942 -2.02452,0.54247 -2.651615,-5.10957 -2.651615,-5.10957"
       id="path54548"
       sodipodi:nodetypes="czc"
       inkscape:label="Fuss links" /><path
       style="fill:#4e6470;fill-opacity:1;stroke:none;stroke-width:0.264583px;stroke-linecap:butt;stroke-linejoin:miter;stroke-opacity:1"
       d="m 71.673148,106.97848 c 0,0 -0.383036,0.60758 0.186016,1.38137 0.569055,0.77379 0.953211,1.71378 1.078824,2.37859 0.293274,1.55218 -0.566396,3.36633 0.550583,4.48331 0.967068,0.96707 2.68273,0.80976 3.649798,-0.15731 0.950128,-0.95013 0.20678,-2.32319 0.630097,-3.59845 0.400267,-1.20581 1.489759,-2.89381 1.950017,-4.28035 0.460258,-1.38653 0.291283,-2.47162 0.291283,-2.47162"
       id="path64926"
       sodipodi:nodetypes="cssssssc"
       inkscape:label="Bein links" /><path
       style="fill:#a8d500;fill-opacity:1;stroke:none;stroke-width:0.265;stroke-linecap:butt;stroke-linejoin:miter;stroke-dasharray:none;stroke-opacity:1"
       d="m 58.164694,113.8779 c -1.379057,-2.93936 -7.532082,-16.22902 -6.372188,-20.557804 3.785509,-3.785509 6.917921,-6.56393 11.179058,-7.093611 4.26114,-0.529681 7.392107,-1.252705 14.795104,-0.723024 6.339436,1.86559 0,0 6.339436,1.86559 -1.175965,-0.346067 3.485999,-6.266276 5.394878,-1.667937 3.816496,12.690885 -5.536836,14.699896 -4.894316,13.792502 -4.217669,7.194024 -9.329163,7.456124 -14.126775,7.505114 -10.045604,0 -8.845144,-2.78326 -10.734114,-2.27711 0.0979,1.60087 4.121043,6.09614 3.535703,7.32091 -0.58535,1.22477 -2.99051,1.83537 -5.116786,1.83537 z"
       id="path51510"
       sodipodi:nodetypes="cczcccccczc"
       inkscape:label="Koerper" /><path
       id="path52175"
       style="fill:#efc7a6;fill-opacity:1;fill-rule:evenodd;stroke-width:0.349507;paint-order:stroke markers fill;stop-color:#000000"
       d="m 76.609208,95.856083 c -0.14089,4.12825 -1.47171,4.11467 -4.771707,5.814657 -0.67702,0.34877 -0.49191,1.80001 -1.33508,1.80001 -0.84317,0 -0.88789,-1.45124 -1.56492,-1.80001 -3.299997,-1.699987 -4.513447,-2.669322 -4.541857,-5.814657 0,-2.615619 2.7341,-6.314664 6.106777,-6.314668 3.372687,-2e-6 6.106787,3.699046 6.106787,6.314668 z"
       sodipodi:nodetypes="cssscsc"
       inkscape:label="Gesicht" /><path
       id="path52120"
       style="fill:#000000;fill-rule:evenodd;stroke-width:0.26938;paint-order:stroke markers fill;stop-color:#000000"
       d="m 79.083332,91.650955 c 0,1.187268 0.29966,2.318337 -0.11539,3.347103 -0.415047,1.028765 -1.015627,1.955226 -1.757777,2.733278 -0.74214,0.778053 -2.36017,-0.391837 -2.62475,-0.127253 -0.26458,0.79375 -1.146577,1.182536 -1.587497,1.5875 -0.44092,0.404964 -2.91042,0.79375 -2.11667,0.529166 0.79375,-0.264584 2.55988,-1.058333 1.85209,-1.058333 -0.70779,0 -4.06343,1.346874 -5.044707,0.911747 -0.98129,-0.435131 -2.39416,-1.064775 -3.1363,-1.842827 -1.908027,-1.796732 -1.892087,-3.869948 -1.873167,-6.080381 0,-4.749073 3.672197,-8.598958 8.202084,-8.598957 4.529887,-10e-7 8.202084,3.849884 8.202084,8.598957 z"
       sodipodi:nodetypes="sscczzzsccss"
       inkscape:label="Haare" /><text
       xml:space="preserve"
       style="font-size:3.52777px;line-height:5.64446px;font-family:'Comic Sans MS';-inkscape-font-specification:'Comic Sans MS';letter-spacing:0px;stroke-width:0.264583"
       x="97.495682"
       y="112.59166"
       id="text3153"><tspan
         sodipodi:role="line"
         id="tspan3151"
         style="stroke-width:0.264583"
         x="97.495682"
         y="112.59166" /></text></g></svg>
