<?xml version="1.0" encoding="UTF-8" standalone="no"?>
<!-- Created with Inkscape (http://www.inkscape.org/) -->

<svg
   width="55.881107mm"
   height="45.969982mm"
   viewBox="0 0 55.881106 45.969982"
   version="1.1"
   id="svg5"
   xml:space="preserve"
   inkscape:version="1.2.2 (732a01da63, 2022-12-09)"
   sodipodi:docname="enemy step right with dog.svg"
   inkscape:export-filename="enemy step right with dog.png"
   inkscape:export-xdpi="600"
   inkscape:export-ydpi="600"
   xmlns:inkscape="http://www.inkscape.org/namespaces/inkscape"
   xmlns:sodipodi="http://sodipodi.sourceforge.net/DTD/sodipodi-0.dtd"
   xmlns="http://www.w3.org/2000/svg"
   xmlns:svg="http://www.w3.org/2000/svg"><sodipodi:namedview
     id="namedview7"
     pagecolor="#ffffff"
     bordercolor="#666666"
     borderopacity="1.0"
     inkscape:showpageshadow="2"
     inkscape:pageopacity="0.0"
     inkscape:pagecheckerboard="0"
     inkscape:deskcolor="#d1d1d1"
     inkscape:document-units="mm"
     showgrid="false"
     showguides="true"
     inkscape:zoom="2.3786088"
     inkscape:cx="51.290486"
     inkscape:cy="118.13628"
     inkscape:window-width="1920"
     inkscape:window-height="1017"
     inkscape:window-x="3832"
     inkscape:window-y="-8"
     inkscape:window-maximized="1"
     inkscape:current-layer="layer1"><inkscape:grid
       type="xygrid"
       id="grid52066"
       units="mm"
       spacingx="0.1"
       spacingy="0.1"
       dotted="false"
       empspacing="5"
       originx="-51.647794"
       originy="-77.390192" /></sodipodi:namedview><defs
     id="defs2" /><g
     inkscape:label="Gegener"
     inkscape:groupmode="layer"
     id="layer1"
     transform="translate(-51.647816,-77.39018)"><path
       style="fill:none;stroke:#000000;stroke-width:0.264583px;stroke-linecap:butt;stroke-linejoin:miter;stroke-opacity:1"
       d="m 95.952486,112.56487 c -8.993324,2.05217 -1.94225,-3.42679 -14.493827,-0.0636"
       id="path3155"
       sodipodi:nodetypes="cc" /><path
       style="fill:#000000;fill-opacity:1;stroke:#000000;stroke-width:0.264583px;stroke-linecap:butt;stroke-linejoin:miter;stroke-opacity:1"
       d="m 73.186845,82.281083 c 0,0 -0.792236,-4.150522 1.232271,-4.692992 2.02452,-0.54247 2.261403,2.400446 2.261403,2.400446"
       id="path54546"
       sodipodi:nodetypes="czc"
       inkscape:label="Fuss rechts" /><path
       style="fill:#808080;fill-opacity:1;stroke:none;stroke-width:0.1;stroke-linecap:butt;stroke-linejoin:miter;stroke-dasharray:none;stroke-opacity:1"
       d="m 76.68052,79.988537 c 0,0 0.154724,2.009653 1.286495,2.525078 1.661088,0.756483 2.073041,4.137498 2.073041,4.137498 0,0 -8.527325,-1.209516 -8.382862,-1.198226 0.07223,0.0056 0.946353,-1.278423 1.273251,-2.563903 0.326897,-1.28548 0.10657,-2.572371 0.10657,-2.572371 z"
       id="path64905"
       sodipodi:nodetypes="cscsscc"
       inkscape:label="Bein rechts" /><path
       style="fill:#000000;fill-opacity:1;stroke:#000000;stroke-width:0.264583px;stroke-linecap:butt;stroke-linejoin:miter;stroke-opacity:1"
       d="m 63.502722,114.70432 c 0,0 -0.652784,4.90695 1.371733,5.44942 2.02452,0.54247 2.651615,-5.10957 2.651615,-5.10957"
       id="path54548"
       sodipodi:nodetypes="czc"
       inkscape:label="Fuss links" /><path
       style="fill:#808080;fill-opacity:1;stroke:none;stroke-width:0.264583px;stroke-linecap:butt;stroke-linejoin:miter;stroke-opacity:1"
       d="m 69.363568,106.97848 c 0,0 0.383036,0.60758 -0.186016,1.38137 -0.569055,0.77379 -0.953211,1.71378 -1.078824,2.37859 -0.293274,1.55218 0.566396,3.36633 -0.550583,4.48331 -0.967068,0.96707 -2.68273,0.80976 -3.649798,-0.15731 -0.950128,-0.95013 -0.20678,-2.32319 -0.630097,-3.59845 -0.400267,-1.20581 -1.489759,-2.89381 -1.950017,-4.28035 -0.460258,-1.38653 -0.291283,-2.47162 -0.291283,-2.47162"
       id="path64926"
       sodipodi:nodetypes="cssssssc"
       inkscape:label="Bein links" /><path
       style="fill:#404040;fill-opacity:1;stroke:none;stroke-width:0.265;stroke-linecap:butt;stroke-linejoin:miter;stroke-dasharray:none;stroke-opacity:1"
       d="m 83.902511,113.8779 c 1.379057,-2.93936 7.532082,-16.22902 6.372188,-20.557804 -3.785509,-3.785509 -6.917921,-6.56393 -11.179058,-7.093611 -4.26114,-0.529681 -7.392107,-1.252705 -14.795104,-0.723024 -6.339436,1.86559 0,0 -6.339436,1.86559 1.175965,-0.346067 -3.485999,-6.266276 -5.394878,-1.667937 -3.816496,12.690885 5.536836,14.699896 4.894316,13.792502 4.217669,7.194024 9.329163,7.456124 14.126775,7.505114 10.045604,0 8.845144,-2.78326 10.734114,-2.27711 -0.0979,1.60087 -4.121043,6.09614 -3.535703,7.32091 0.58535,1.22477 2.99051,1.83537 5.116786,1.83537 z"
       id="path51510"
       sodipodi:nodetypes="cczcccccczc"
       inkscape:label="Koerper" /><path
       id="path52175"
       style="fill:#efc7a6;fill-opacity:1;fill-rule:evenodd;stroke-width:0.349507;paint-order:stroke markers fill;stop-color:#000000"
       d="m 76.609208,95.856083 c -0.14089,4.12825 -1.47171,4.11467 -4.771707,5.814657 -0.67702,0.34877 -0.49191,1.80001 -1.33508,1.80001 -0.84317,0 -0.88789,-1.45124 -1.56492,-1.80001 -3.299997,-1.699987 -4.513447,-2.669322 -4.541857,-5.814657 0,-2.615619 2.7341,-6.314664 6.106777,-6.314668 3.372687,-2e-6 6.106787,3.699046 6.106787,6.314668 z"
       sodipodi:nodetypes="cssscsc"
       inkscape:label="Gesicht" /><path
       id="path52120"
       style="fill:#000000;fill-rule:evenodd;stroke-width:0.26938;paint-order:stroke markers fill;stop-color:#000000"
       d="m 79.083332,91.650955 c 0,1.187268 0.29966,2.318337 -0.11539,3.347103 -0.415047,1.028765 -1.015627,1.955226 -1.757777,2.733278 -0.74214,0.778053 -2.36017,-0.391837 -2.62475,-0.127253 -0.26458,0.79375 -1.146577,1.182536 -1.587497,1.5875 -0.44092,0.404964 -2.91042,0.79375 -2.11667,0.529166 0.79375,-0.264584 2.55988,-1.058333 1.85209,-1.058333 -0.70779,0 -4.06343,1.346874 -5.044707,0.911747 -0.98129,-0.435131 -2.39416,-1.064775 -3.1363,-1.842827 -1.908027,-1.796732 -1.892087,-3.869948 -1.873167,-6.080381 0,-4.749073 3.672197,-8.598958 8.202084,-8.598957 4.529887,-10e-7 8.202084,3.849884 8.202084,8.598957 z"
       sodipodi:nodetypes="sscczzzsccss"
       inkscape:label="Haare" /><ellipse
       style="fill:#ff4500;fill-opacity:1;fill-rule:evenodd;stroke:none;stroke-width:0.0714509;stroke-opacity:1;paint-order:stroke markers fill;stop-color:#000000"
       id="path2320"
       cx="-96.08213"
       cy="-122.2013"
       rx="0.54036647"
       ry="0.75674772"
       transform="scale(-1)" /><path
       style="fill:#ad8a65;stroke-width:0.187303"
       d="m 103.60438,105.64349 c 0.008,0.19745 -0.0362,0.30808 -0.0984,0.24584 -0.0622,-0.0622 -0.0689,-0.2238 -0.0148,-0.359 0.0598,-0.14942 0.10418,-0.10504 0.11316,0.11316 z"
       id="path2262" /><path
       style="fill:#9c5e19;stroke-width:0.187303"
       d="m 104.51887,84.494176 c 1.52018,0.768056 2.5713,2.02965 2.78422,3.341726 0.14469,0.891658 0.0335,0.867539 -1.20063,-0.260379 -2.31145,-2.112526 -4.80076,-2.32803 -6.300685,-0.545451 -0.74068,0.880239 -0.476025,1.369064 0.286135,1.677985 2.82825,1.146345 4.51768,3.791933 3.13075,7.495822 -0.55394,1.479315 -0.64099,3.515343 -0.2586,4.868081 0.85276,3.01673 1.10788,4.88555 0.0509,7.47272 -0.51994,1.27266 -0.95719,1.6335 -0.9698,3.42791 -0.014,1.99022 -0.0177,2.00608 -0.48235,2.0791 -0.39644,0.0623 -0.3784,0.0779 0.1176,0.10164 0.32222,0.0154 0.73551,-0.0889 1.12531,-0.25173 0.81594,-0.34093 2.18778,-0.45072 2.65597,0.20372 l 0.27577,0.38546 -0.3962,0.47603 c -0.22886,0.27498 -0.77483,0.93899 -1.01364,1.29955 -0.93096,1.40557 -1.28092,1.63835 -2.25271,1.63835 -0.49581,0 -0.16078,0.0255 -0.16078,0.12856 -0.34305,0.62536 0.29088,0.0481 -0.88708,1.23754 -0.59266,0.59266 -0.77537,0.85591 -0.77537,1.38185 0,1.44779 -0.57905,2.30539 -2.164924,2.30539 -1.49897,0 -1.95574,-0.80136 -1.95574,-2.22405 0,-1.02318 -0.0391,-1.12271 -0.56191,-1.43156 -0.30905,-0.18256 -0.66102,-0.43042 -0.66102,-0.56273 0,-0.13232 -0.21453,-0.0685 -0.3079,-0.0685 -0.0934,0 0.0448,-0.32591 0.0955,-0.51998 -0.74361,-0.14983 -2.00805,0.21557 -2.12347,-1.22037 -0.66433,-0.50328 -2.2364,-3.15135 -1.49091,-2.18755 0.0537,0.0695 -0.48941,-0.17192 -0.43449,-0.38204 0.55489,-0.54233 1.6612,-0.44295 2.23309,-0.27716 0.65029,0.19232 1.17683,0.22413 1.84625,0.11154 0.72387,-0.12173 0.80037,-0.1625 0.3369,-0.17952 l -0.59961,-0.022 0.11165,-1.58216 c -0.0352,-1.60883 0.0477,-2.4492 -0.87162,-3.60534 -0.41882,-0.7361 -0.52846,-1.56407 -0.80352,-2.22659 -0.32014,-0.32015 -0.4904,-3.08002 0.2096,-4.48002 0.31927,-0.63853 0.66949,-3.296552 0.008,-5.525098 -1.5075,-5.0749 0.0463,-7.245121 2.86679,-7.809225 0.3966,-0.07932 0.52169,-0.211986 0.52169,-0.553294 0,-3.381759 4.527354,-5.481436 8.017224,-3.718197 z"
       id="path2256"
       sodipodi:nodetypes="cssssssscsssscscsccssssssccsccssccccsssscc" /><path
       style="fill:#000000;stroke-width:0.187303"
       d="m 104.69663,84.308886 c 1.51708,0.758966 2.6231,2.10854 2.79826,3.414471 0.15338,1.143542 -0.18179,1.118673 -1.62134,-0.120303 -2.39283,-2.059446 -5.43452,-2.061159 -6.117931,-0.0035 -0.254794,0.767156 -0.148755,1.04866 0.332291,1.108543 2.68839,0.334668 4.54547,4.07927 3.44431,7.398476 -0.75745,2.283162 -0.78084,2.918894 -0.19709,5.357697 0.72489,3.02842 0.63289,4.82166 -0.37376,7.28527 -1.1896,2.91135 -1.09571,5.00792 0.21164,4.7262 1.55778,-0.33569 3.25098,0.47068 2.65195,1.26295 -0.13152,0.17393 -0.53412,0.72461 -0.89467,1.22374 -1.23016,1.70292 -1.69624,2.15227 -2.23235,2.15227 -0.39468,0 -0.57657,0.14417 -0.8164,0.6471 -0.16972,0.3559 -0.56462,0.7795 -0.87755,0.94133 -0.48656,0.25161 -0.56898,0.40029 -0.56898,1.02644 0,1.81347 -1.874498,3.25515 -3.062354,2.35524 -0.25876,-0.19604 -0.45425,-0.21336 -0.77234,-0.0684 -0.92822,0.42292 -1.72825,-0.87731 -0.94154,-1.53022 0.5274,-0.43771 0.35971,-1.61803 -0.2839,-1.99822 -0.31067,-0.18352 -0.66107,-0.55103 -0.77866,-0.81669 -0.16384,-0.37013 -0.32732,-0.46912 -0.69945,-0.42355 -0.6359,0.0779 -1.08783,-0.33485 -1.99151,-1.81873 -0.40778,-0.66961 -0.85929,-1.30971 -1.00334,-1.42246 -1.02509,-0.80228 0.55521,-1.58562 2.20839,-1.09468 1.21792,0.36168 1.11947,0.48104 1.26223,-1.53025 l 0.11892,-1.67526 -0.90627,-1.86808 c -1.19705,-2.46745 -1.32163,-4.06354 -0.54986,-7.04413 0.57026,-2.202316 0.54906,-2.768141 -0.19653,-5.245534 -1.14394,-3.800966 -0.16889,-6.821325 2.50915,-7.772477 0.8342,-0.296284 0.94199,-0.399322 1.04111,-0.99529 0.59323,-3.566588 4.693294,-5.280131 8.307574,-3.471982 z m -6.043288,0.381985 c -1.130276,0.750209 -2.151696,2.421914 -2.151696,3.521502 0,0.341308 -0.12509,0.473972 -0.5217,0.553294 -2.82051,0.564104 -4.06848,3.963603 -2.86679,7.809225 0.68265,2.184577 0.70615,3.335588 0.11246,5.507568 -0.75488,2.76173 -0.64243,4.1077 0.54878,6.56844 l 0.90427,1.86798 -0.10367,1.73761 -0.10367,1.7376 0.59373,0.022 c 0.45237,0.0168 0.37076,0.0595 -0.3428,0.17953 -0.65521,0.11019 -1.19398,0.0814 -1.79367,-0.0959 -1.33179,-0.39374 -2.6093,0.12102 -1.81737,0.7323 0.13698,0.10573 0.57783,0.74378 0.97967,1.41789 1.0196,1.71046 1.4635,2.0242 2.25835,1.59614 0.33263,-0.17913 0.8055,-0.28772 1.05082,-0.2413 0.42125,0.0797 0.41803,0.0858 -0.058,0.1099 -0.97083,0.0491 -0.83474,0.96293 0.23774,1.59646 0.50419,0.29783 0.54724,0.40826 0.54724,1.40384 0,2.68685 3.827927,2.85405 4.079154,0.17817 0.082,-0.87365 0.1845,-1.07718 0.81686,-1.62231 0.76964,-0.66347 0.93342,-1.25073 0.3953,-1.41742 -0.18027,-0.0558 0.0588,-0.0655 0.53134,-0.0215 1.07606,0.10023 1.4855,-0.16978 2.37393,-1.56553 0.36928,-0.58014 0.82541,-1.16493 1.01364,-1.29955 1.16525,-0.83332 -1.13071,-1.79789 -2.53554,-1.06521 -0.29508,0.15389 -0.80079,0.26717 -1.12382,0.25173 -0.49588,-0.0237 -0.51442,-0.0395 -0.11907,-0.10164 0.4651,-0.0731 0.46832,-0.0871 0.47684,-2.0791 0.007,-1.66006 0.0761,-2.13457 0.40033,-2.75473 1.22941,-2.3512 1.40905,-4.17247 0.7149,-7.2475 -0.59195,-2.622335 -0.58899,-3.682789 0.0157,-5.596715 1.11083,-3.516405 0.0339,-6.357059 -2.76822,-7.302016 -1.233512,-0.415979 -1.425018,-1.056935 -0.606431,-2.029777 1.510251,-1.79484 3.992521,-1.584922 6.310591,0.533671 1.23413,1.127918 1.34534,1.152037 1.20064,0.260379 -0.54616,-3.365582 -5.56711,-5.191189 -8.649754,-3.145031 z m -3.057036,37.665149 c 0.0365,0.19122 0.25508,0.37461 0.48582,0.40753 0.50534,0.0721 0.52178,-0.0388 0.0917,-0.61863 -0.35313,-0.47612 -0.68546,-0.35465 -0.57756,0.2111 z"
       id="path2254"
       sodipodi:nodetypes="cssssssssssssssscssssscsscssssccccssscscccssssssssssssssssssscsscsssscccssc" /><path
       style="fill:none;stroke:#000000;stroke-width:2.665;stroke-linecap:butt;stroke-linejoin:miter;stroke-dasharray:none;stroke-opacity:1"
       d="m 102.15313,112.56487 c -2.564153,0.0269 -4.219314,0.167 -7.780594,-0.18333"
       id="path2371"
       sodipodi:nodetypes="cc" /><text
       xml:space="preserve"
       style="font-size:3.52777px;line-height:5.64446px;font-family:'Comic Sans MS';-inkscape-font-specification:'Comic Sans MS';letter-spacing:0px;stroke-width:0.264583"
       x="97.495682"
       y="112.59166"
       id="text3153"><tspan
         sodipodi:role="line"
         id="tspan3151"
         style="stroke-width:0.264583"
         x="97.495682"
         y="112.59166" /></text></g></svg>
