<?xml version="1.0" encoding="UTF-8" standalone="no"?>
<!-- Created with Inkscape (http://www.inkscape.org/) -->

<svg
   width="38.771572mm"
   height="42.931881mm"
   viewBox="0 0 38.771571 42.931881"
   version="1.1"
   id="svg5"
   xml:space="preserve"
   inkscape:version="1.2.2 (732a01da63, 2022-12-09)"
   sodipodi:docname="enemy DHL step right.svg"
   inkscape:export-filename="enemy DHL step right.png"
   inkscape:export-xdpi="600"
   inkscape:export-ydpi="600"
   xmlns:inkscape="http://www.inkscape.org/namespaces/inkscape"
   xmlns:sodipodi="http://sodipodi.sourceforge.net/DTD/sodipodi-0.dtd"
   xmlns="http://www.w3.org/2000/svg"
   xmlns:svg="http://www.w3.org/2000/svg"><sodipodi:namedview
     id="namedview7"
     pagecolor="#ffffff"
     bordercolor="#666666"
     borderopacity="1.0"
     inkscape:showpageshadow="2"
     inkscape:pageopacity="0.0"
     inkscape:pagecheckerboard="0"
     inkscape:deskcolor="#d1d1d1"
     inkscape:document-units="mm"
     showgrid="false"
     showguides="true"
     inkscape:zoom="2.3786088"
     inkscape:cx="39.729106"
     inkscape:cy="73.152004"
     inkscape:window-width="1920"
     inkscape:window-height="1017"
     inkscape:window-x="3832"
     inkscape:window-y="-8"
     inkscape:window-maximized="1"
     inkscape:current-layer="layer1"><inkscape:grid
       type="xygrid"
       id="grid52066"
       units="mm"
       spacingx="0.1"
       spacingy="0.1"
       dotted="false"
       empspacing="5"
       originx="-93.981128"
       originy="-77.390194" /></sodipodi:namedview><defs
     id="defs2" /><g
     inkscape:label="Gegener"
     inkscape:groupmode="layer"
     id="layer1"
     transform="translate(-93.981151,-77.39018)"><g
       id="g65300"><path
         style="fill:#000000;fill-opacity:1;stroke:#000000;stroke-width:0.264583px;stroke-linecap:butt;stroke-linejoin:miter;stroke-opacity:1"
         d="m 116.55067,82.281083 c 0,0 -0.79223,-4.150522 1.23228,-4.692992 2.02452,-0.54247 2.2614,2.400446 2.2614,2.400446"
         id="path65266"
         sodipodi:nodetypes="czc"
         inkscape:label="Fuss rechts" /><path
         style="fill:#d40410;fill-opacity:1;stroke:none;stroke-width:0.1;stroke-linecap:butt;stroke-linejoin:miter;stroke-dasharray:none;stroke-opacity:1"
         d="m 120.04435,79.988537 c 0,0 0.15472,2.009653 1.28649,2.525078 1.66109,0.756483 2.07305,4.137498 2.07305,4.137498 0,0 -8.52733,-1.209516 -8.38287,-1.198226 0.0722,0.0056 0.94636,-1.278423 1.27325,-2.563903 0.3269,-1.28548 0.10657,-2.572371 0.10657,-2.572371 z"
         id="path65268"
         sodipodi:nodetypes="cscsscc"
         inkscape:label="Bein rechts" /><path
         style="fill:#000000;fill-opacity:1;stroke:#000000;stroke-width:0.264583px;stroke-linecap:butt;stroke-linejoin:miter;stroke-opacity:1"
         d="m 106.86655,114.70432 c 0,0 -0.65278,4.90695 1.37173,5.44942 2.02452,0.54247 2.65162,-5.10957 2.65162,-5.10957"
         id="path65270"
         sodipodi:nodetypes="czc"
         inkscape:label="Fuss links" /><path
         style="fill:#d40410;fill-opacity:1;stroke:none;stroke-width:0.264583px;stroke-linecap:butt;stroke-linejoin:miter;stroke-opacity:1"
         d="m 112.7274,106.97848 c 0,0 0.38303,0.60758 -0.18602,1.38137 -0.56905,0.77379 -0.95321,1.71378 -1.07882,2.37859 -0.29328,1.55218 0.56639,3.36633 -0.55059,4.48331 -0.96706,0.96707 -2.68273,0.80976 -3.64979,-0.15731 -0.95013,-0.95013 -0.20678,-2.32319 -0.6301,-3.59845 -0.40027,-1.20581 -1.48976,-2.89381 -1.95002,-4.28035 -0.46026,-1.38653 -0.29128,-2.47162 -0.29128,-2.47162"
         id="path65272"
         sodipodi:nodetypes="cssssssc"
         inkscape:label="Bein links" /><path
         style="fill:#f2c200;fill-opacity:1;stroke:none;stroke-width:0.265;stroke-linecap:butt;stroke-linejoin:miter;stroke-dasharray:none;stroke-opacity:1"
         d="m 126.23585,113.8779 c 1.37905,-2.93936 7.53208,-16.22902 6.37218,-20.557804 -3.7855,-3.785509 -6.91791,-6.56393 -11.17905,-7.093611 -4.26114,-0.529681 -7.39211,-1.252705 -14.7951,-0.723024 -6.33944,1.86559 0,0 -6.33944,1.86559 1.17597,-0.346067 -3.486004,-6.266276 -5.394884,-1.667937 -3.81649,12.690885 5.536844,14.699896 4.89432,13.792502 4.217674,7.194024 9.329164,7.456124 14.126774,7.505114 10.04561,0 8.84515,-2.78326 10.73412,-2.27711 -0.0979,1.60087 -4.12105,6.09614 -3.53571,7.32091 0.58535,1.22477 2.99051,1.83537 5.11679,1.83537 z"
         id="path65274"
         sodipodi:nodetypes="cczcccccczc"
         inkscape:label="Koerper" /><path
         style="fill:#d40410;stroke:none;stroke-width:0.00552749"
         d="m 116.64731,102.70746 c 0.0982,0.029 0.23462,0.006 0.33718,0.006 h 0.72962 0.26532 c 0.0303,0 0.079,-0.008 0.10093,0.0189 0.0233,0.0283 -8.7e-4,0.0743 -0.0121,0.10271 -0.036,0.0898 -0.0811,0.17547 -0.11687,0.26532 -0.0126,0.0316 -0.0493,0.0861 -0.0178,0.11772 0.0203,0.0204 0.0585,0.0149 0.0845,0.0149 h 0.2211 0.23216 c 0.0244,0 0.0699,0.009 0.0908,-0.006 0.0386,-0.0265 0.0617,-0.12877 0.0819,-0.1712 0.0925,-0.19406 0.1686,-0.38033 0.0995,-0.59697 -0.0397,-0.12433 -0.1184,-0.2393 -0.24461,-0.28707 -0.11389,-0.0431 -0.25629,-0.0225 -0.37587,-0.0225 h -0.74069 -0.3427 c -0.0356,0 -0.10585,-0.0134 -0.13667,0.006 -0.0361,0.0224 -0.0624,0.11608 -0.0789,0.15462 -0.057,0.13294 -0.12691,0.2623 -0.17689,0.39798 m 2.16678,0.52511 h 1.25474 0.36482 c 0.0433,0 0.11395,0.0136 0.15403,-0.003 0.0224,-0.009 0.0297,-0.043 0.0391,-0.063 0.0301,-0.0638 0.0586,-0.12863 0.0864,-0.19346 0.077,-0.17943 0.1564,-0.36038 0.24144,-0.53617 0.0405,-0.0836 0.11536,-0.19377 0.12017,-0.28743 h -0.51958 c -0.048,0 -0.15613,-0.0203 -0.19684,0.006 -0.0394,0.0251 -0.0635,0.1236 -0.0819,0.16567 -0.0461,0.10558 -0.0934,0.21093 -0.14258,0.31506 -0.0182,0.0386 -0.0299,0.0934 -0.0588,0.12538 -0.0162,0.018 -0.0453,0.0128 -0.0671,0.0128 h -0.18241 c -0.0172,0 -0.0679,0.008 -0.0705,-0.0174 -0.004,-0.0441 0.0506,-0.11918 0.0682,-0.15948 0.063,-0.14489 0.15245,-0.29029 0.1958,-0.4422 -0.0551,-0.0163 -0.12509,-0.006 -0.18241,-0.006 h -0.35928 c -0.0443,0 -0.14268,-0.0185 -0.18023,0.006 -0.0211,0.0136 -0.0313,0.0551 -0.0409,0.0772 -0.0264,0.061 -0.0534,0.12234 -0.0817,0.18241 -0.088,0.18634 -0.17087,0.37555 -0.25471,0.5638 -0.0344,0.0773 -0.0971,0.16956 -0.10579,0.25427 m 2.03412,0 h 0.53617 c 0.0587,0 0.16593,0.0209 0.21922,-0.003 0.0237,-0.0108 0.0323,-0.0523 0.0423,-0.074 0.0295,-0.0645 0.06,-0.12871 0.089,-0.19346 0.0817,-0.18251 0.16478,-0.36437 0.2457,-0.54723 0.0366,-0.0829 0.0923,-0.17113 0.11133,-0.25979 -0.0566,-0.0167 -0.12902,-0.006 -0.18794,-0.006 h -0.3814 c -0.0469,0 -0.1515,-0.0197 -0.19131,0.006 -0.0222,0.0141 -0.0333,0.0542 -0.0432,0.0772 -0.0279,0.0649 -0.0583,0.12857 -0.0861,0.19346 -0.077,0.17964 -0.15859,0.35938 -0.242,0.53617 -0.0373,0.0791 -0.10773,0.18288 -0.11176,0.27085 m -4.30039,0.75727 h 0.96178 c 0.13312,0 0.28474,0.0197 0.41456,-0.0137 0.0824,-0.0212 0.15911,-0.0666 0.22663,-0.11692 0.12,-0.0893 0.2009,-0.21337 0.27742,-0.33922 0.0164,-0.0271 0.0703,-0.098 0.0608,-0.1309 -0.005,-0.0179 -0.037,-0.0128 -0.0508,-0.0128 h -0.16582 -0.48642 c -0.0522,0 -0.14688,0.018 -0.19222,-0.0118 -0.0438,-0.0287 -0.005,-0.0926 0.01,-0.12636 0.0382,-0.089 0.0806,-0.17617 0.11841,-0.26532 0.0121,-0.0286 0.0339,-0.0756 0.006,-0.10218 -0.0228,-0.022 -0.0683,-0.0139 -0.0971,-0.0139 h -0.25426 -0.23216 c -0.0241,0 -0.0698,-0.009 -0.0904,0.006 -0.0201,0.014 -0.028,0.0505 -0.0381,0.0717 -0.0321,0.0674 -0.0597,0.13695 -0.0913,0.20452 -0.0925,0.19739 -0.18316,0.39661 -0.26889,0.59697 -0.0333,0.0778 -0.0991,0.16998 -0.1082,0.25427 m 0.12713,-0.61355 h -0.45878 -0.31507 -0.27084 c -0.0362,0 -0.0857,-0.009 -0.12034,0.002 -0.0258,0.008 -0.0284,0.10437 -0.009,0.11969 0.0171,0.0136 0.0589,0.006 0.0796,0.006 h 0.20451 0.58592 c 0.0656,0 0.18201,0.0228 0.24203,-0.003 0.0324,-0.0141 0.0551,-0.0918 0.062,-0.1238 m 1.79644,0.61355 h 0.50853 c 0.0559,0 0.15792,0.0199 0.20852,-0.004 0.0357,-0.0169 0.0589,-0.11042 0.075,-0.14514 0.0398,-0.086 0.0747,-0.17449 0.11587,-0.25979 0.0302,-0.0625 0.071,-0.1315 0.087,-0.19899 -0.0551,-0.0163 -0.12509,-0.006 -0.18241,-0.006 h -0.35929 c -0.0437,0 -0.1433,-0.0186 -0.18009,0.006 -0.0384,0.0254 -0.0658,0.12902 -0.083,0.1712 -0.0584,0.14305 -0.15434,0.28599 -0.19013,0.43667 m 1.06128,0 h 0.51959 c 0.0492,0 0.15524,0.0201 0.19753,-0.006 0.0376,-0.0229 0.0572,-0.11026 0.075,-0.14909 0.0455,-0.0992 0.0899,-0.19888 0.13463,-0.29848 0.0232,-0.0515 0.0582,-0.10426 0.0682,-0.1603 h -0.503 c -0.0591,0 -0.1604,-0.0197 -0.21484,0.003 -0.0357,0.0151 -0.0605,0.11158 -0.0761,0.14591 -0.0483,0.10669 -0.0973,0.21317 -0.14385,0.32059 -0.0196,0.0452 -0.0521,0.0944 -0.0572,0.14372 m 2.89641,-0.61356 h -0.75174 -0.4809 -0.29848 c -0.0318,0 -0.0924,-0.0116 -0.12007,0.006 -0.0296,0.0185 -0.0487,0.09 -0.0623,0.12144 -0.0561,0.12985 -0.10048,0.30467 0.0277,0.41198 0.10457,0.0875 0.2374,0.0744 0.36473,0.0744 h 0.71305 0.24321 c 0.0242,0 0.0698,0.009 0.0904,-0.006 0.0382,-0.0267 0.0595,-0.11827 0.0777,-0.16014 0.0445,-0.10188 0.0927,-0.2025 0.13813,-0.30401 0.0206,-0.046 0.051,-0.0936 0.0585,-0.14372 m 0.094,0.12714 h 0.36482 0.24874 c 0.0873,0 0.21402,0.0238 0.29721,-0.002 0.0265,-0.008 0.0278,-0.10385 0.008,-0.1197 -0.0142,-0.0114 -0.0453,-0.006 -0.0622,-0.006 h -0.17135 -0.4422 c -0.0503,0 -0.14023,-0.0175 -0.18605,0.003 -0.0328,0.0149 -0.0527,0.0912 -0.0572,0.1238 m -5.95865,0.11608 h -0.42008 -0.28191 -0.23768 c -0.0339,0 -0.0774,-0.007 -0.11023,0.002 -0.0302,0.008 -0.0347,0.10101 -0.0125,0.1197 0.0154,0.013 0.0542,0.006 0.073,0.006 h 0.18793 0.53064 c 0.0563,0 0.16266,0.0208 0.2134,-0.003 0.0289,-0.0137 0.0522,-0.0941 0.0574,-0.1238 m 5.90453,0.006 c -0.0187,0.011 -0.0697,0.10471 -0.0436,0.11812 0.0496,0.0254 0.16334,0.003 0.21928,0.003 h 0.5638 0.17136 c 0.0172,0 0.0485,0.006 0.063,-0.006 0.022,-0.0174 0.0169,-0.11411 -0.0136,-0.12019 -0.0717,-0.0143 -0.1587,-10e-4 -0.23182,-10e-4 h -0.47537 -0.17688 c -0.0224,0 -0.0562,-0.006 -0.0762,0.006 m -6.96795,0.24319 c -0.0195,0.0153 -0.0165,0.1123 0.008,0.11971 0.0597,0.0177 0.14692,0.002 0.20923,0.002 h 0.46984 0.15477 c 0.0213,0 0.0468,0.004 0.0633,-0.0128 0.0138,-0.014 0.0566,-0.0926 0.0382,-0.10864 -0.0126,-0.011 -0.0418,-0.006 -0.0572,-0.006 h -0.15477 -0.53617 -0.13818 c -0.0161,0 -0.0439,-0.005 -0.0574,0.006 m 6.80095,0.12147 h 0.44773 0.30401 0.2598 c 0.0366,0 0.0857,0.009 0.12077,-0.002 0.0263,-0.008 0.0273,-0.10393 0.008,-0.1197 -0.0159,-0.0129 -0.0541,-0.006 -0.0733,-0.006 h -0.20452 -0.57486 -0.1603 c -0.0202,0 -0.051,-0.006 -0.0695,0.003 -0.0293,0.0142 -0.0523,0.0938 -0.0576,0.1238 z"
         id="path65276"
         inkscape:label="DHL Logo" /><path
         id="path65278"
         style="fill:#efc7a6;fill-opacity:1;fill-rule:evenodd;stroke-width:0.349507;paint-order:stroke markers fill;stop-color:#000000"
         d="m 118.94254,95.856083 c -0.14089,4.12825 -1.47171,4.11467 -4.7717,5.814657 -0.67702,0.34877 -0.49191,1.80001 -1.33508,1.80001 -0.84317,0 -0.88789,-1.45124 -1.56492,-1.80001 -3.3,-1.699987 -4.51345,-2.669322 -4.54186,-5.814657 0,-2.615619 2.7341,-6.314664 6.10678,-6.314668 3.37268,-2e-6 6.10678,3.699046 6.10678,6.314668 z"
         sodipodi:nodetypes="cssscsc"
         inkscape:label="Gesicht" /><path
         id="path65280"
         style="fill:#000000;fill-rule:evenodd;stroke-width:0.26938;paint-order:stroke markers fill;stop-color:#000000"
         d="m 121.41667,91.650955 c 0,1.187268 0.29966,2.318337 -0.11539,3.347103 -0.41505,1.028765 -1.01563,1.955226 -1.75778,2.733278 -0.74214,0.778053 -2.36017,-0.391837 -2.62475,-0.127253 -0.26458,0.79375 -1.14658,1.182536 -1.5875,1.5875 -0.44092,0.404964 -2.91042,0.79375 -2.11667,0.529166 0.79375,-0.264584 2.55988,-1.058333 1.85209,-1.058333 -0.70779,0 -4.06343,1.346874 -5.0447,0.911747 -0.98129,-0.435131 -2.39416,-1.064775 -3.1363,-1.842827 -1.90803,-1.796732 -1.89209,-3.869948 -1.87317,-6.080381 0,-4.749073 3.6722,-8.598958 8.20208,-8.598957 4.52989,-10e-7 8.20209,3.849884 8.20209,8.598957 z"
         sodipodi:nodetypes="sscczzzsccss"
         inkscape:label="Haare" /></g></g></svg>
