<?xml version="1.0" encoding="UTF-8" standalone="no"?>
<!-- Created with Inkscape (http://www.inkscape.org/) -->

<svg
   width="38.771572mm"
   height="42.931881mm"
   viewBox="0 0 38.771571 42.931881"
   version="1.1"
   id="svg5"
   xml:space="preserve"
   inkscape:version="1.2.2 (732a01da63, 2022-12-09)"
   sodipodi:docname="enemy step right.svg"
   inkscape:export-filename="enemy step right.png"
   inkscape:export-xdpi="600"
   inkscape:export-ydpi="600"
   xmlns:inkscape="http://www.inkscape.org/namespaces/inkscape"
   xmlns:sodipodi="http://sodipodi.sourceforge.net/DTD/sodipodi-0.dtd"
   xmlns="http://www.w3.org/2000/svg"
   xmlns:svg="http://www.w3.org/2000/svg"><sodipodi:namedview
     id="namedview7"
     pagecolor="#ffffff"
     bordercolor="#666666"
     borderopacity="1.0"
     inkscape:showpageshadow="2"
     inkscape:pageopacity="0.0"
     inkscape:pagecheckerboard="0"
     inkscape:deskcolor="#d1d1d1"
     inkscape:document-units="mm"
     showgrid="false"
     showguides="true"
     inkscape:zoom="2.3786088"
     inkscape:cx="6.726621"
     inkscape:cy="73.152004"
     inkscape:window-width="1920"
     inkscape:window-height="1017"
     inkscape:window-x="3832"
     inkscape:window-y="-8"
     inkscape:window-maximized="1"
     inkscape:current-layer="layer1"><inkscape:grid
       type="xygrid"
       id="grid52066"
       units="mm"
       spacingx="0.1"
       spacingy="0.1"
       dotted="false"
       empspacing="5"
       originx="-93.981128"
       originy="-77.390194" /></sodipodi:namedview><defs
     id="defs2" /><g
     inkscape:label="Gegener"
     inkscape:groupmode="layer"
     id="layer1"
     transform="translate(-93.981151,-77.39018)"><path
       style="fill:#000000;fill-opacity:1;stroke:#000000;stroke-width:0.264583px;stroke-linecap:butt;stroke-linejoin:miter;stroke-opacity:1"
       d="m 116.55067,82.281083 c 0,0 -0.79223,-4.150522 1.23228,-4.692992 2.02452,-0.54247 2.2614,2.400446 2.2614,2.400446"
       id="path65266"
       sodipodi:nodetypes="czc"
       inkscape:label="Fuss rechts" /><path
       style="fill:#808080;fill-opacity:1;stroke:none;stroke-width:0.1;stroke-linecap:butt;stroke-linejoin:miter;stroke-dasharray:none;stroke-opacity:1"
       d="m 120.04435,79.988537 c 0,0 0.15472,2.009653 1.28649,2.525078 1.66109,0.756483 2.07305,4.137498 2.07305,4.137498 0,0 -8.52733,-1.209516 -8.38287,-1.198226 0.0722,0.0056 0.94636,-1.278423 1.27325,-2.563903 0.3269,-1.28548 0.10657,-2.572371 0.10657,-2.572371 z"
       id="path65268"
       sodipodi:nodetypes="cscsscc"
       inkscape:label="Bein rechts" /><path
       style="fill:#000000;fill-opacity:1;stroke:#000000;stroke-width:0.264583px;stroke-linecap:butt;stroke-linejoin:miter;stroke-opacity:1"
       d="m 106.86655,114.70432 c 0,0 -0.65278,4.90695 1.37173,5.44942 2.02452,0.54247 2.65162,-5.10957 2.65162,-5.10957"
       id="path65270"
       sodipodi:nodetypes="czc"
       inkscape:label="Fuss links" /><path
       style="fill:#808080;fill-opacity:1;stroke:none;stroke-width:0.264583px;stroke-linecap:butt;stroke-linejoin:miter;stroke-opacity:1"
       d="m 112.7274,106.97848 c 0,0 0.38303,0.60758 -0.18602,1.38137 -0.56905,0.77379 -0.95321,1.71378 -1.07882,2.37859 -0.29328,1.55218 0.56639,3.36633 -0.55059,4.48331 -0.96706,0.96707 -2.68273,0.80976 -3.64979,-0.15731 -0.95013,-0.95013 -0.20678,-2.32319 -0.6301,-3.59845 -0.40027,-1.20581 -1.48976,-2.89381 -1.95002,-4.28035 -0.46026,-1.38653 -0.29128,-2.47162 -0.29128,-2.47162"
       id="path65272"
       sodipodi:nodetypes="cssssssc"
       inkscape:label="Bein links" /><path
       style="fill:#404040;fill-opacity:1;stroke:none;stroke-width:0.265;stroke-linecap:butt;stroke-linejoin:miter;stroke-dasharray:none;stroke-opacity:1"
       d="m 126.23585,113.8779 c 1.37905,-2.93936 7.53208,-16.22902 6.37218,-20.557804 -3.7855,-3.785509 -6.91791,-6.56393 -11.17905,-7.093611 -4.26114,-0.529681 -7.39211,-1.252705 -14.7951,-0.723024 -6.33944,1.86559 0,0 -6.33944,1.86559 1.17597,-0.346067 -3.486004,-6.266276 -5.394884,-1.667937 -3.81649,12.690885 5.536844,14.699896 4.89432,13.792502 4.217674,7.194024 9.329164,7.456124 14.126774,7.505114 10.04561,0 8.84515,-2.78326 10.73412,-2.27711 -0.0979,1.60087 -4.12105,6.09614 -3.53571,7.32091 0.58535,1.22477 2.99051,1.83537 5.11679,1.83537 z"
       id="path65274"
       sodipodi:nodetypes="cczcccccczc"
       inkscape:label="Koerper" /><path
       id="path65278"
       style="fill:#efc7a6;fill-opacity:1;fill-rule:evenodd;stroke-width:0.349507;paint-order:stroke markers fill;stop-color:#000000"
       d="m 118.94254,95.856083 c -0.14089,4.12825 -1.47171,4.11467 -4.7717,5.814657 -0.67702,0.34877 -0.49191,1.80001 -1.33508,1.80001 -0.84317,0 -0.88789,-1.45124 -1.56492,-1.80001 -3.3,-1.699987 -4.51345,-2.669322 -4.54186,-5.814657 0,-2.615619 2.7341,-6.314664 6.10678,-6.314668 3.37268,-2e-6 6.10678,3.699046 6.10678,6.314668 z"
       sodipodi:nodetypes="cssscsc"
       inkscape:label="Gesicht" /><path
       id="path65280"
       style="fill:#000000;fill-rule:evenodd;stroke-width:0.26938;paint-order:stroke markers fill;stop-color:#000000"
       d="m 121.41667,91.650955 c 0,1.187268 0.29966,2.318337 -0.11539,3.347103 -0.41505,1.028765 -1.01563,1.955226 -1.75778,2.733278 -0.74214,0.778053 -2.36017,-0.391837 -2.62475,-0.127253 -0.26458,0.79375 -1.14658,1.182536 -1.5875,1.5875 -0.44092,0.404964 -2.91042,0.79375 -2.11667,0.529166 0.79375,-0.264584 2.55988,-1.058333 1.85209,-1.058333 -0.70779,0 -4.06343,1.346874 -5.0447,0.911747 -0.98129,-0.435131 -2.39416,-1.064775 -3.1363,-1.842827 -1.90803,-1.796732 -1.89209,-3.869948 -1.87317,-6.080381 0,-4.749073 3.6722,-8.598958 8.20208,-8.598957 4.52989,-10e-7 8.20209,3.849884 8.20209,8.598957 z"
       sodipodi:nodetypes="sscczzzsccss"
       inkscape:label="Haare" /></g></svg>
